<?xml version="1.0" encoding="UTF-8" standalone="no"?>
<svg
   xmlns:dc="http://purl.org/dc/elements/1.1/"
   xmlns:cc="http://creativecommons.org/ns#"
   xmlns:rdf="http://www.w3.org/1999/02/22-rdf-syntax-ns#"
   xmlns:svg="http://www.w3.org/2000/svg"
   xmlns="http://www.w3.org/2000/svg"
   xmlns:sodipodi="http://sodipodi.sourceforge.net/DTD/sodipodi-0.dtd"
   xmlns:inkscape="http://www.inkscape.org/namespaces/inkscape"
   version="1.1"
   id="svg2"
   xml:space="preserve"
   width="4000"
   height="2666.6667"
   viewBox="0 0 4000 2666.6667"
   sodipodi:docname="10799.eps"><metadata
     id="metadata8"><rdf:RDF><cc:Work
         rdf:about=""><dc:format>image/svg+xml</dc:format><dc:type
           rdf:resource="http://purl.org/dc/dcmitype/StillImage" /></cc:Work></rdf:RDF></metadata><defs
     id="defs6" /><sodipodi:namedview
     pagecolor="#ffffff"
     bordercolor="#666666"
     borderopacity="1"
     objecttolerance="10"
     gridtolerance="10"
     guidetolerance="10"
     inkscape:pageopacity="0"
     inkscape:pageshadow="2"
     inkscape:window-width="640"
     inkscape:window-height="480"
     id="namedview4" /><g
     id="g10"
     inkscape:groupmode="layer"
     inkscape:label="ink_ext_XXXXXX"
     transform="matrix(1.3333333,0,0,-1.3333333,0,2666.6667)"><g
       id="g12"
       transform="scale(0.1)"><path
         d="M 0,0 H 30000 V 20000 H 0 Z"
         style="fill:#ffffff;fill-opacity:1;fill-rule:nonzero;stroke:none"
         id="path14" /><path
         d="m 3429.16,2178 c 0,0 -3320.68,2926.1 -1208.09,6368.7 2112.59,3442.7 4949.97,1711.4 4812.66,5718.3 -137.31,4007 6525.37,4351.2 8646.17,3189.4 2120.8,-1161.9 2108.1,-2561.2 6486.2,-2098.2 4378.1,463 5214.5,-3396.4 4075.5,-5363.4 C 24625.5,7202 30726.9,7662.3 26882.4,2178 H 3429.16"
         style="fill:#ebf3fa;fill-opacity:1;fill-rule:nonzero;stroke:none"
         id="path16" /><path
         d="m 17928.3,9803.9 c 0,0 744.8,1544 2086,1544 46.9,0 94.2,-1.8 142.5,-5.7 0,0 277.5,-26.6 301.7,-344 24.2,-317.4 -513.5,-200.8 -872,-247 -358.5,-46.2 -1244.8,-382.3 -1658.2,-947.3"
         style="fill:#d9e5fc;fill-opacity:1;fill-rule:nonzero;stroke:none"
         id="path18" /><path
         d="m 17968.9,10137.4 c 0,0 175.3,1477 1302.1,1765.8 0,0 20.9,5 52.7,5 71.5,0 198.4,-25.3 269.1,-189.1 102.1,-236.8 -340.5,-289.1 -603,-419 -262.5,-129.9 -853,-620.9 -1020.9,-1162.7"
         style="fill:#d9e5fc;fill-opacity:1;fill-rule:nonzero;stroke:none"
         id="path20" /><path
         d="m 16610.9,2822.9 -140.4,6.7 c 0,0 -98.7,970.2 -441.3,1469.8 -13.5,18.2 -33,44.3 -57.2,76.1 v 0 c -57.6,69.4 -97.4,121.1 -123.8,159 -174.4,218.3 -418.1,499.3 -547.5,541.2 v 0 0 c -114.2,-525.8 -1208.3,-848 -1856.8,-855.9 -10.6,-0.1 -21,-0.2 -31.2,-0.2 -609.7,0 -382.5,232.1 -117.7,583.1 269.2,356.8 985.2,434.4 1166.5,590.8 110.6,95.5 31.9,149.6 -138.5,149.6 -108.8,0 -255.1,-22.1 -413.2,-69.6 -405.9,-121.9 -518.6,-580.6 -1171.4,-789.8 -54.6,-17.5 -110.2,-25.5 -166.2,-25.5 -613.9,0 -1280.3,962.2 -1280.3,962.2 22.9,-2 46.3,-2.9 70.3,-2.9 492.6,0 1191.2,402.7 1187,561 -0.9,37.8 -64.8,52.4 -165.3,52.4 -168.3,0 -439.1,-40.8 -689.1,-81.6 -250.1,-40.7 -479.3,-81.5 -564.3,-81.5 -2.4,0 -4.7,0.1 -6.8,0.1 -201.5,6.2 -621.8,315.2 -588.5,1123.9 33.2,808.7 1374.3,850.8 1374.3,850.8 0,0 1153.2,-1122.5 1430.2,-1122.5 2.9,0 5.6,0.1 8.3,0.4 261.4,23.6 -816.7,1174.3 -816.7,1174.3 91.5,29.4 215.8,41.4 357.4,41.4 603.1,0 1516.6,-217 1516.6,-217 0,0 259.8,-1492.7 501.3,-1492.7 6.7,0 13.4,1.2 20,3.5 247,87.3 -314,1384.1 -314,1384.1 509.1,-39.2 1080.3,-499 1080.3,-499 761.9,-785.5 -278.1,-1713.6 -278.1,-1713.6 0,0 106.8,-544.4 581.3,-1092.1 0,0 692.1,-670.1 614.8,-1686.5 m -1310.1,2253.3 c 0,0 0,-0.1 -0.1,-0.1 0.1,0 0.1,0.1 0.1,0.1 m 0,0.1 v 0 0 m 0.1,0.3 v 0 0 m 0.2,0.9 c -0.1,-0.1 -0.1,-0.2 -0.1,-0.4 0,0.2 0,0.3 0.1,0.4 m 0,0.2 c 0,-0.1 0,-0.1 0,-0.1 0,0 0,0 0,0.1 m 0,0.2 v -0.1 0.1 m 0.1,0.4 c 0,-0.1 0,-0.2 0,-0.4 0,0.1 0,0.3 0,0.4 m 0.3,1.2 c -0.1,-0.4 -0.2,-0.8 -0.3,-1.1 0.1,0.3 0.2,0.7 0.3,1.1 m 1.1,5.1 c -0.2,-0.9 -0.6,-2.6 -1.1,-5.1 0.4,1.8 0.8,3.9 1.1,5.1 m 0.1,0.5 c 0,-0.1 0,-0.2 -0.1,-0.4 0.1,0.2 0.1,0.3 0.1,0.4 m 0.2,0.8 c 0,0 -0.1,-0.3 -0.2,-0.8 0.1,0.5 0.2,0.8 0.2,0.8"
         style="fill:#d9e5fc;fill-opacity:1;fill-rule:nonzero;stroke:none"
         id="path22" /><path
         d="m 19225.2,2514.6 c -156.7,0 -311,34.4 -389.7,149.1 -196.6,286.6 -101.2,506 -225.9,680.9 -84.5,118.4 -178.1,194.8 -222.1,194.8 -21,0 -30.7,-17.4 -22.8,-55.9 24.5,-119.1 286.7,-372.4 285,-599.3 -1.2,-154.7 7.9,-280.8 -67.4,-280.8 -35.2,0 -88.9,27.5 -170.6,92.6 -256.5,204.3 -594.8,673.2 -479.4,920 5,10.7 9.8,21 14.4,30.8 -11.2,-18.4 -14.4,-30.8 -14.4,-30.8 -14,5 -33.6,7.2 -57.1,7.2 -84.8,0 -220.3,-28.6 -327.2,-55 l -0.2,-0.1 c -22.1,-7 -53.8,-15.4 -97.9,-25.4 h -0.1 l -0.1,-0.1 c -19.1,-5.2 -34.7,-9.6 -45.7,-12.7 l -0.7,-0.2 -0.3,-0.1 c -17.2,-5.6 -34.5,-12.2 -51.8,-19.5 l -43.3,51.7 c 102.8,34.1 173.3,42.2 173.3,42.2 v 0 c 357.2,73 566.5,258.8 566.5,258.8 0,0 -131.1,695.7 413.7,775.2 0,0 3.5,0.1 10.1,0.1 60.7,0 379.9,-6.3 574.1,-134.5 0,0 -621.1,-347.4 -549.2,-459.1 6.6,-10.3 17.7,-15 32.3,-15 144,0.1 631.8,452.1 631.8,452.1 0,0 657.4,-298.8 802.2,-510.6 0,0 -782.9,-128.3 -685.7,-218.9 31.2,-29.1 137.2,-39 266.6,-39 273.4,0 651.5,44.1 651.5,44.1 0,0 522.6,-432.9 288.3,-768.4 -162.6,-232.7 -338.7,-301 -458.8,-301 -53,0 -95.2,13.3 -120.4,31.7 -77.2,56.3 -434.3,492.6 -521.8,492.6 -5.7,0 -10.4,-2 -13.6,-6 -52.6,-65.4 121.1,-478.6 331.2,-614.4 0,0 -240.1,-77.1 -474.8,-77.1"
         style="fill:#d9e5fc;fill-opacity:1;fill-rule:nonzero;stroke:none"
         id="path24" /><path
         d="m 10205.4,11093.3 342.5,-5371.4 -169.2,-10.8 c -1.9,-0.1 -128.6,510.3 -128.6,510.3 l -309.64,4855 264.94,16.9"
         style="fill:#aec3ff;fill-opacity:1;fill-rule:nonzero;stroke:none"
         id="path26" /><path
         d="m 10415.4,5713.5 81,-342.8 18.4,349.1 z"
         style="fill:#0b0755;fill-opacity:1;fill-rule:nonzero;stroke:none"
         id="path28" /><path
         d="m 10309.2,6278.7 c -6,93.4 65,174 158.5,180 93.4,6 174,-65 180,-158.4 6,-93.5 -65,-174.1 -158.5,-180.1 -93.4,-6 -174,65 -180,158.5"
         style="fill:#f78248;fill-opacity:1;fill-rule:nonzero;stroke:none"
         id="path30" /><path
         d="m 10332.2,11126.3 2606,-4709.4 148.3,82.1 c 1.7,0.9 -166.6,499.2 -166.6,499.2 l -2355.4,4256.6 -232.3,-128.5"
         style="fill:#aec3ff;fill-opacity:1;fill-rule:nonzero;stroke:none"
         id="path32" /><path
         d="m 13054.3,6481.2 116.5,-332.3 -203.6,284.1 z"
         style="fill:#0b0755;fill-opacity:1;fill-rule:nonzero;stroke:none"
         id="path34" /><path
         d="m 12617.3,7742.9 -83.8,-46.4 -207.1,374.2 83.9,46.4 207,-374.2"
         style="fill:#f78248;fill-opacity:1;fill-rule:nonzero;stroke:none"
         id="path36" /><path
         d="m 10267.1,11470.3 -191.4,-54.9 -188.97,659.2 191.37,54.8 189,-659.1"
         style="fill:#0b0755;fill-opacity:1;fill-rule:nonzero;stroke:none"
         id="path38" /><path
         d="m 10592.2,11299.1 -40.6,-380.1 185.9,-648.4 -425.3,-121.9 -185.9,648.4 -235.78,300.8 c -55.49,193.7 56.54,395.7 250.18,451.2 l 0.4,0.1 c 193.6,55.5 395.7,-56.5 451.1,-250.1"
         style="fill:#f78248;fill-opacity:1;fill-rule:nonzero;stroke:none"
         id="path40" /><path
         d="m 10142.7,11181.5 c -15.1,52.8 15.4,108 68.3,123.1 52.8,15.2 107.9,-15.4 123.1,-68.2 15.1,-52.9 -15.4,-108 -68.3,-123.2 -52.8,-15.1 -107.9,15.5 -123.1,68.3"
         style="fill:#0b0755;fill-opacity:1;fill-rule:nonzero;stroke:none"
         id="path42" /><path
         d="m 21787.1,12608.7 h -67.4 v 24.8 h 42.7 v 42.7 h 24.7 v -67.5"
         style="fill:#ccdbfd;fill-opacity:1;fill-rule:nonzero;stroke:none"
         id="path44" /><path
         d="m 21605.2,12608.7 h -114.6 v 24.8 h 114.6 v -24.8 m -229.1,0 h -114.5 v 24.8 h 114.5 v -24.8 m -229,0 h -114.5 v 24.8 h 114.5 v -24.8 m -229,0 h -114.5 v 24.8 h 114.5 v -24.8 m -229,0 h -114.5 v 24.8 h 114.5 v -24.8 m -229.1,0 h -114.5 v 24.8 h 114.5 v -24.8 m -229,0 h -114.5 v 24.8 h 114.5 v -24.8 m -229,0 h -114.5 v 24.8 h 114.5 v -24.8 m -229,0 h -114.5 v 24.8 h 114.5 v -24.8"
         style="fill:#ccdbfd;fill-opacity:1;fill-rule:nonzero;stroke:none"
         id="path46" /><path
         d="m 19544,12608.7 h -67.5 v 67.5 h 24.7 v -42.7 h 42.8 v -24.8"
         style="fill:#ccdbfd;fill-opacity:1;fill-rule:nonzero;stroke:none"
         id="path48" /><path
         d="m 19501.2,12781.7 h -24.7 v 105.5 h 24.7 v -105.5 m 0,210.9 h -24.7 v 105.5 h 24.7 v -105.5 m 0,211 h -24.7 v 105.5 h 24.7 v -105.5 m 0,210.9 h -24.7 v 105.5 h 24.7 v -105.5 m 0,211 h -24.7 v 105.4 h 24.7 v -105.4 m 0,210.9 h -24.7 v 105.5 h 24.7 v -105.5 m 0,211 h -24.7 v 105.5 h 24.7 v -105.5 m 0,210.9 h -24.7 v 105.5 h 24.7 v -105.5"
         style="fill:#ccdbfd;fill-opacity:1;fill-rule:nonzero;stroke:none"
         id="path50" /><path
         d="m 19501.2,14469.3 h -24.7 v 67.4 h 67.5 v -24.7 h -42.8 v -42.7"
         style="fill:#ccdbfd;fill-opacity:1;fill-rule:nonzero;stroke:none"
         id="path52" /><path
         d="m 21605.2,14512 h -114.6 v 24.7 h 114.6 v -24.7 m -229.1,0 h -114.5 v 24.7 h 114.5 v -24.7 m -229,0 h -114.5 v 24.7 h 114.5 v -24.7 m -229,0 h -114.5 v 24.7 h 114.5 v -24.7 m -229,0 h -114.5 v 24.7 h 114.5 v -24.7 m -229.1,0 h -114.5 v 24.7 h 114.5 v -24.7 m -229,0 h -114.5 v 24.7 h 114.5 v -24.7 m -229,0 h -114.5 v 24.7 h 114.5 v -24.7 m -229,0 h -114.5 v 24.7 h 114.5 v -24.7"
         style="fill:#ccdbfd;fill-opacity:1;fill-rule:nonzero;stroke:none"
         id="path54" /><path
         d="m 21787.1,14469.3 h -24.7 v 42.7 h -42.7 v 24.7 h 67.4 v -67.4"
         style="fill:#ccdbfd;fill-opacity:1;fill-rule:nonzero;stroke:none"
         id="path56" /><path
         d="m 21787.1,12781.7 h -24.7 v 105.5 h 24.7 v -105.5 m 0,210.9 h -24.7 v 105.5 h 24.7 v -105.5 m 0,211 h -24.7 v 105.5 h 24.7 v -105.5 m 0,210.9 h -24.7 v 105.5 h 24.7 v -105.5 m 0,211 h -24.7 v 105.4 h 24.7 v -105.4 m 0,210.9 h -24.7 v 105.5 h 24.7 v -105.5 m -17.4,211 h -7.3 v 105.5 h 24.7 v -100.4 c -5.8,-1.7 -11.6,-3.4 -17.4,-5.1 m 17.4,210.9 h -24.7 v 105.5 h 24.7 v -105.5"
         style="fill:#ccdbfd;fill-opacity:1;fill-rule:nonzero;stroke:none"
         id="path58" /><path
         d="m 22117.1,11675.1 c -41.3,0.1 -83,2.2 -123.9,6.4 l 2.8,27.4 c 40,-4.1 80.8,-6.2 121.1,-6.2 v -27.6 m 123.9,6.2 -2.7,27.4 c 40.1,4 80.5,10.2 119.9,18.3 l 5.5,-27 c -40.3,-8.3 -81.6,-14.6 -122.7,-18.7 m -370.4,19.2 c -40.4,8.4 -80.8,18.9 -120.1,31.4 l 8.4,26.3 c 38.4,-12.2 77.8,-22.6 117.3,-30.8 l -5.6,-26.9 m 613.2,30.8 -8.3,26.2 c 38.4,12.2 76.7,26.4 113.6,42.5 l 11,-25.3 c -37.9,-16.4 -77,-31 -116.3,-43.4 m -849.5,44.3 c -37.7,16.5 -75.1,35.1 -111.1,55.4 l 13.6,24 c 35.1,-19.8 71.6,-38 108.5,-54.1 l -11,-25.3 m 1076.9,54.3 -13.5,24 c 35.1,19.8 69.6,41.5 102.5,64.8 l 15.9,-22.5 c -33.7,-23.8 -69,-46.1 -104.9,-66.3 m -1292.8,67.7 c -33.6,23.8 -66.4,49.7 -97.4,76.8 l 18.1,20.7 c 30.3,-26.5 62.4,-51.8 95.3,-75.1 l -16,-22.4 m 1495.3,75.2 -18,20.8 c 30.3,26.5 59.7,54.8 87.2,84.2 l 20.1,-18.8 c -28.1,-30.1 -58.2,-59.1 -89.3,-86.2 m -1681.8,87.9 c -28.2,30.2 -55.1,62.2 -79.9,95 l 21.9,16.6 c 24.3,-32.1 50.6,-63.3 78.1,-92.8 l -20.1,-18.8 m 1851.2,93.1 -21.9,16.7 c 24.4,32.1 47.4,65.8 68.4,100.2 l 23.5,-14.4 c -21.4,-35.1 -45,-69.6 -70,-102.5 m -2000.9,104.5 c -21.5,35.3 -41.3,72 -59,109.2 l 24.9,11.8 c 17.3,-36.3 36.7,-72.2 57.6,-106.7 l -23.5,-14.3 m 2130.1,107.1 -24.9,11.9 c 17.4,36.4 33,74.1 46.6,112 l 25.9,-9.2 c -13.8,-38.8 -29.9,-77.4 -47.6,-114.7 m -2236.5,116.8 c -13.7,38.9 -25.6,78.9 -35.3,119 l 26.8,6.5 c 9.4,-39.2 21,-78.3 34.5,-116.3 l -26,-9.2 m 2319.7,116.8 -26.8,6.5 c 9.5,39.2 17.1,79.2 22.6,119.2 l 27.3,-3.8 c -5.6,-40.8 -13.4,-81.9 -23.1,-121.9 m -2377.9,124.2 c -5.5,40.7 -9,82.3 -10.3,123.6 l 27.5,0.9 c 1.3,-40.3 4.7,-81 10.1,-120.8 l -27.3,-3.7 m 2411.5,121.4 -27.5,0.9 c 0.5,13.7 0.7,27.4 0.7,41.2 0,26.7 -0.9,53.7 -2.7,80.1 l 27.5,1.8 c 1.8,-27 2.7,-54.6 2.7,-81.9 0,-13.9 -0.2,-28.1 -0.7,-42.1 m -2394.9,42.1 h -27.5 c 0,41.4 2.1,83.1 6.2,123.9 l 27.4,-2.8 c -4,-39.9 -6.1,-80.7 -6.1,-121.1 m 2351.2,200.5 c -6.8,39.8 -15.7,79.6 -26.5,118.4 l 26.5,7.4 c 11.1,-39.7 20.2,-80.5 27.1,-121.1 l -27.1,-4.7 m -2326.7,40.5 -26.9,5.6 c 8.3,40.4 18.9,80.8 31.3,120.1 l 26.3,-8.4 c -12.2,-38.3 -22.5,-77.8 -30.7,-117.3 m 2261.6,192.8 c -14.8,37.5 -31.7,74.6 -50.2,110.4 l 24.4,12.7 c 19,-36.6 36.3,-74.7 51.4,-113 l -25.6,-10.1 m -2188.3,38.1 -25.3,11 c 16.4,37.8 35.1,75.2 55.3,111.1 l 24,-13.5 c -19.8,-35.1 -38,-71.7 -54,-108.6 m 2076.8,177 c -22.1,33.6 -46.2,66.6 -71.6,97.9 l 21.3,17.3 c 26.1,-32 50.7,-65.7 73.3,-100.1 l -23,-15.1 m -1957.9,34.1 -22.5,15.9 c 23.8,33.6 49.6,66.4 76.8,97.5 l 20.7,-18.1 c -26.5,-30.4 -51.7,-62.5 -75,-95.3 m 1805,153.8 c -28.5,28.5 -58.8,55.9 -90,81.4 l 17.4,21.3 c 32,-26 63,-54.1 92.1,-83.2 l -19.5,-19.5 m -1645.6,28.7 -18.8,20.1 c 30.1,28.2 62,55.1 94.9,80 l 16.6,-21.9 c -32.1,-24.3 -63.3,-50.6 -92.7,-78.2 m 1457.8,124.4 c -33.7,22.2 -68.9,42.8 -104.6,61.4 l 12.7,24.4 c 36.5,-19 72.6,-40.1 107,-62.8 l -15.1,-23 m -1264.9,22.1 -14.3,23.5 c 35.2,21.5 71.9,41.3 109.2,59 l 11.8,-24.8 c -36.4,-17.3 -72.3,-36.8 -106.7,-57.7 m 1049.9,89.6 c -37.5,14.8 -76.1,27.9 -114.9,38.7 l 7.4,26.5 c 39.7,-11.1 79.3,-24.4 117.6,-39.6 l -10.1,-25.6 m -831.2,14.5 -9.2,25.9 c 18.8,6.7 37.8,12.9 57,18.7 h 17.4 v 5.1 c 14.8,4.2 29.7,8.1 44.6,11.7 l 6.5,-26.8 c -39.2,-9.5 -78.3,-21.1 -116.3,-34.6"
         style="fill:#ccdbfd;fill-opacity:1;fill-rule:nonzero;stroke:none"
         id="path60" /><path
         d="m 21787.1,14047.4 h -17.4 c 5.8,1.7 11.6,3.4 17.4,5.1 v -5.1"
         style="fill:#bdcffe;fill-opacity:1;fill-rule:nonzero;stroke:none"
         id="path62" /><path
         d="m 22319.9,14053.7 c -39.7,6.7 -80.2,11.6 -120.4,14.3 l 1.8,27.5 c 41.2,-2.8 82.7,-7.7 123.2,-14.7 l -4.6,-27.1 m -362.6,6.2 -3.7,27.3 c 40.7,5.5 82.3,9 123.6,10.4 l 1,-27.5 c -40.4,-1.4 -81.1,-4.8 -120.9,-10.2"
         style="fill:#ccdbfd;fill-opacity:1;fill-rule:nonzero;stroke:none"
         id="path64" /><path
         d="M 8194.09,2212.5 6738.2,4491.6 9678.24,6369.7 Z"
         style="fill:#aec3ff;fill-opacity:1;fill-rule:nonzero;stroke:none"
         id="path66" /><path
         d="M 8063.13,3296 7405.21,4325.9 8733.8,5174.6 Z"
         style="fill:#ebf3fa;fill-opacity:1;fill-rule:nonzero;stroke:none"
         id="path68" /><path
         d="m 7062.08,4406.8 -13.06,-8.4 -106.35,166.5 13.06,8.4 106.35,-166.5"
         style="fill:#060633;fill-opacity:1;fill-rule:nonzero;stroke:none"
         id="path70" /><path
         d="m 7095,4524.3 -13.06,-8.3 -62.56,97.9 13.06,8.4 62.56,-98"
         style="fill:#060633;fill-opacity:1;fill-rule:nonzero;stroke:none"
         id="path72" /><path
         d="m 7159.47,4565.5 -13.06,-8.3 -62.56,97.9 13.06,8.3 62.56,-97.9"
         style="fill:#060633;fill-opacity:1;fill-rule:nonzero;stroke:none"
         id="path74" /><path
         d="m 7220.67,4604.6 -13.05,-8.3 -62.56,97.9 13.06,8.3 62.55,-97.9"
         style="fill:#060633;fill-opacity:1;fill-rule:nonzero;stroke:none"
         id="path76" /><path
         d="m 7277.26,4640.8 -13.06,-8.4 -62.56,98 13.06,8.3 62.56,-97.9"
         style="fill:#060633;fill-opacity:1;fill-rule:nonzero;stroke:none"
         id="path78" /><path
         d="m 7340.36,4681.1 -13.06,-8.4 -62.55,98 13.05,8.3 62.56,-97.9"
         style="fill:#060633;fill-opacity:1;fill-rule:nonzero;stroke:none"
         id="path80" /><path
         d="m 7447.26,4652.8 -13.06,-8.3 -106.34,166.5 13.05,8.3 106.35,-166.5"
         style="fill:#060633;fill-opacity:1;fill-rule:nonzero;stroke:none"
         id="path82" /><path
         d="m 7480.19,4770.4 -13.07,-8.3 -62.55,97.9 13.06,8.3 62.56,-97.9"
         style="fill:#060633;fill-opacity:1;fill-rule:nonzero;stroke:none"
         id="path84" /><path
         d="m 7544.65,4811.6 -13.05,-8.4 -62.56,98 13.05,8.3 62.56,-97.9"
         style="fill:#060633;fill-opacity:1;fill-rule:nonzero;stroke:none"
         id="path86" /><path
         d="m 7605.86,4850.7 -13.06,-8.4 -62.56,98 13.06,8.3 62.56,-97.9"
         style="fill:#060633;fill-opacity:1;fill-rule:nonzero;stroke:none"
         id="path88" /><path
         d="m 7662.44,4886.8 -13.06,-8.3 -62.55,97.9 13.05,8.4 62.56,-98"
         style="fill:#060633;fill-opacity:1;fill-rule:nonzero;stroke:none"
         id="path90" /><path
         d="m 7725.55,4927.1 -13.06,-8.3 -62.56,97.9 13.06,8.4 62.56,-98"
         style="fill:#060633;fill-opacity:1;fill-rule:nonzero;stroke:none"
         id="path92" /><path
         d="m 7856.66,4914.4 -13.06,-8.4 -106.35,166.5 13.06,8.3 106.35,-166.4"
         style="fill:#060633;fill-opacity:1;fill-rule:nonzero;stroke:none"
         id="path94" /><path
         d="m 7889.58,5031.9 -13.06,-8.3 -62.56,97.9 13.06,8.4 62.56,-98"
         style="fill:#060633;fill-opacity:1;fill-rule:nonzero;stroke:none"
         id="path96" /><path
         d="m 7954.05,5073.1 -13.06,-8.3 -62.56,97.9 13.06,8.3 62.56,-97.9"
         style="fill:#060633;fill-opacity:1;fill-rule:nonzero;stroke:none"
         id="path98" /><path
         d="m 8015.25,5112.2 -13.05,-8.3 -62.56,97.9 13.06,8.3 62.55,-97.9"
         style="fill:#060633;fill-opacity:1;fill-rule:nonzero;stroke:none"
         id="path100" /><path
         d="m 8071.84,5148.3 -13.06,-8.3 -62.56,97.9 13.06,8.4 62.56,-98"
         style="fill:#060633;fill-opacity:1;fill-rule:nonzero;stroke:none"
         id="path102" /><path
         d="m 8134.94,5188.7 -13.06,-8.4 -62.55,98 13.05,8.3 62.56,-97.9"
         style="fill:#060633;fill-opacity:1;fill-rule:nonzero;stroke:none"
         id="path104" /><path
         d="m 8241.84,5160.4 -13.06,-8.3 -106.34,166.5 13.05,8.3 106.35,-166.5"
         style="fill:#060633;fill-opacity:1;fill-rule:nonzero;stroke:none"
         id="path106" /><path
         d="m 8274.76,5278 -13.06,-8.4 -62.55,98 13.06,8.3 62.55,-97.9"
         style="fill:#060633;fill-opacity:1;fill-rule:nonzero;stroke:none"
         id="path108" /><path
         d="m 8339.23,5319.2 -13.05,-8.4 -62.56,98 13.05,8.3 62.56,-97.9"
         style="fill:#060633;fill-opacity:1;fill-rule:nonzero;stroke:none"
         id="path110" /><path
         d="m 8400.44,5358.3 -13.06,-8.4 -62.56,98 13.06,8.3 62.56,-97.9"
         style="fill:#060633;fill-opacity:1;fill-rule:nonzero;stroke:none"
         id="path112" /><path
         d="m 8457.02,5394.4 -13.06,-8.3 -62.55,97.9 13.05,8.3 62.56,-97.9"
         style="fill:#060633;fill-opacity:1;fill-rule:nonzero;stroke:none"
         id="path114" /><path
         d="m 8520.13,5434.7 -13.06,-8.3 -62.56,97.9 13.06,8.4 62.56,-98"
         style="fill:#060633;fill-opacity:1;fill-rule:nonzero;stroke:none"
         id="path116" /><path
         d="m 8644.17,5417.4 -13.06,-8.3 -106.35,166.5 13.06,8.3 106.35,-166.5"
         style="fill:#060633;fill-opacity:1;fill-rule:nonzero;stroke:none"
         id="path118" /><path
         d="m 8677.08,5535 -13.05,-8.3 -62.56,97.9 13.06,8.3 62.55,-97.9"
         style="fill:#060633;fill-opacity:1;fill-rule:nonzero;stroke:none"
         id="path120" /><path
         d="m 8741.55,5576.2 -13.05,-8.4 -62.56,98 13.05,8.3 62.56,-97.9"
         style="fill:#060633;fill-opacity:1;fill-rule:nonzero;stroke:none"
         id="path122" /><path
         d="m 8802.76,5615.3 -13.06,-8.4 -62.56,98 13.06,8.3 62.56,-97.9"
         style="fill:#060633;fill-opacity:1;fill-rule:nonzero;stroke:none"
         id="path124" /><path
         d="m 8859.34,5651.4 -13.06,-8.3 -62.55,97.9 13.05,8.4 62.56,-98"
         style="fill:#060633;fill-opacity:1;fill-rule:nonzero;stroke:none"
         id="path126" /><path
         d="m 8922.45,5691.7 -13.06,-8.3 -62.55,97.9 13.05,8.4 62.56,-98"
         style="fill:#060633;fill-opacity:1;fill-rule:nonzero;stroke:none"
         id="path128" /><path
         d="m 9029.35,5663.5 -13.06,-8.3 -106.34,166.4 13.05,8.4 106.35,-166.5"
         style="fill:#060633;fill-opacity:1;fill-rule:nonzero;stroke:none"
         id="path130" /><path
         d="m 9062.27,5781.1 -13.06,-8.4 -62.55,97.9 13.05,8.4 62.56,-97.9"
         style="fill:#060633;fill-opacity:1;fill-rule:nonzero;stroke:none"
         id="path132" /><path
         d="m 9126.74,5822.2 -13.06,-8.3 -62.56,97.9 13.06,8.4 62.56,-98"
         style="fill:#060633;fill-opacity:1;fill-rule:nonzero;stroke:none"
         id="path134" /><path
         d="m 9187.94,5861.3 -13.05,-8.3 -62.56,97.9 13.06,8.4 62.55,-98"
         style="fill:#060633;fill-opacity:1;fill-rule:nonzero;stroke:none"
         id="path136" /><path
         d="m 9244.53,5897.5 -13.06,-8.4 -62.56,98 13.06,8.3 62.56,-97.9"
         style="fill:#060633;fill-opacity:1;fill-rule:nonzero;stroke:none"
         id="path138" /><path
         d="m 9307.64,5937.8 -13.06,-8.3 -62.56,97.9 13.06,8.3 62.56,-97.9"
         style="fill:#060633;fill-opacity:1;fill-rule:nonzero;stroke:none"
         id="path140" /><path
         d="m 9438.75,5925 -13.06,-8.3 -106.35,166.5 13.06,8.3 106.35,-166.5"
         style="fill:#060633;fill-opacity:1;fill-rule:nonzero;stroke:none"
         id="path142" /><path
         d="m 23230.3,4374.9 c 0,0 17.3,849.1 866.4,953.1 849.2,104 2469.5,43.3 2469.5,43.3 v -489.4 c 0,0 -1839.3,16.6 -2452.1,0 -254.7,-6.9 -563.2,-30.4 -883.8,-507"
         style="fill:#f78248;fill-opacity:1;fill-rule:nonzero;stroke:none"
         id="path144" /><path
         d="m 24599.3,4975.7 c 0,0 -69.3,-2530.2 -450.6,-2738.1 -381.2,-208 -889.6,46.2 -600.7,531.4 288.8,485.2 462.1,508.3 566.1,1074.4 103.9,566.2 103.9,1132.3 103.9,1132.3 h 381.3"
         style="fill:#f78248;fill-opacity:1;fill-rule:nonzero;stroke:none"
         id="path146" /><path
         d="m 25361.8,4975.7 c 0,0 -265.7,-1733 -173.3,-2206.7 92.4,-473.7 519.9,-716.3 947.4,-462.1 427.4,254.2 300.3,623.9 300.3,623.9 0,0 -348.4,-277.3 -624.8,-69.4 -276.3,208 -137.7,2206.7 -137.7,2206.7 l -311.9,-92.4"
         style="fill:#f78248;fill-opacity:1;fill-rule:nonzero;stroke:none"
         id="path148" /><path
         d="m 7904.67,10178.6 c -403.83,0 -783.49,-157.3 -1069.04,-442.8 -285.56,-285.6 -442.82,-665.2 -442.82,-1069.1 0,-403.8 157.26,-783.5 442.82,-1069 285.55,-285.6 665.21,-442.8 1069.04,-442.8 403.84,0 783.5,157.2 1069.06,442.8 285.54,285.5 442.81,665.2 442.81,1069 0,403.9 -157.27,783.5 -442.81,1069.1 -285.56,285.5 -665.22,442.8 -1069.06,442.8 z m 0,-3052.4 c -411.49,0 -798.35,160.2 -1089.32,451.2 -290.97,291 -451.21,677.8 -451.21,1089.3 0,411.5 160.24,798.4 451.21,1089.3 290.97,291 677.83,451.3 1089.32,451.3 411.5,0 798.36,-160.3 1089.33,-451.3 290.97,-290.9 451.21,-677.8 451.21,-1089.3 0,-411.5 -160.24,-798.3 -451.21,-1089.3 -290.97,-291 -677.83,-451.2 -1089.33,-451.2"
         style="fill:#aec3ff;fill-opacity:1;fill-rule:nonzero;stroke:none"
         id="path150" /><path
         d="m 8005.81,9133.4 c -23.51,0.4 -47.49,0.8 -71.28,0.9 l 0.09,16 c 23.88,-0.1 47.93,-0.4 71.51,-0.9 z m -213.81,-0.3 -0.36,16 c 23.63,0.6 47.69,0.9 71.49,1.1 l 0.13,-16 c -23.72,-0.2 -47.7,-0.5 -71.26,-1.1 z m 356.27,-4.7 c -23.5,1.1 -47.46,2.2 -71.21,3 l 0.56,16 c 23.83,-0.8 47.87,-1.9 71.46,-3.1 z m -498.72,-0.6 -0.84,15.9 c 23.51,1.3 47.55,2.4 71.44,3.3 l 0.61,-16 c -23.82,-0.9 -47.78,-2 -71.21,-3.2 z m 640.96,-8.8 c -23.4,1.9 -47.32,3.7 -71.08,5.3 l 1.05,15.9 c 23.85,-1.5 47.84,-3.3 71.33,-5.2 z m -783.18,-0.9 -1.34,15.9 c 23.54,2 47.54,3.8 71.32,5.5 l 1.09,-16 c -23.7,-1.6 -47.61,-3.4 -71.07,-5.4 z m 925.03,-13 c -23.37,2.7 -47.2,5.3 -70.86,7.6 l 1.56,15.9 c 23.74,-2.3 47.67,-4.9 71.13,-7.6 z m -1066.84,-1.3 -1.87,15.9 c 23.51,2.8 47.44,5.4 71.12,7.8 l 1.59,-16 c -23.58,-2.3 -47.41,-4.9 -70.84,-7.7 z m 1208.09,-17.5 c -23.08,3.5 -46.81,6.9 -70.53,10.1 l 2.11,15.8 c 23.82,-3.1 47.65,-6.5 70.84,-10.1 z m -1349.28,-1.8 -2.46,15.9 c 23.22,3.6 47.05,7.1 70.8,10.3 l 2.17,-15.9 c -23.66,-3.2 -47.38,-6.7 -70.51,-10.3 z m 1489.64,-22.6 c -22.86,4.5 -46.42,8.9 -70.04,13 l 2.74,15.7 c 23.73,-4.1 47.41,-8.5 70.38,-13 z m -1629.91,-2.2 -3.14,15.7 c 22.95,4.6 46.61,9 70.34,13.2 l 2.8,-15.7 c -23.62,-4.2 -47.18,-8.6 -70,-13.2 z m 1768.96,-28.5 c -22.53,5.6 -45.86,11.1 -69.32,16.2 l 3.44,15.7 c 23.61,-5.2 47.07,-10.7 69.74,-16.4 z m -1907.87,-2.8 -3.93,15.5 c 22.66,5.8 46.1,11.3 69.67,16.6 l 3.51,-15.6 c -23.43,-5.2 -46.72,-10.8 -69.25,-16.5 z M 8990,8992.8 c -21.93,6.9 -44.87,13.7 -68.17,20.3 l 4.32,15.4 c 23.47,-6.6 46.58,-13.5 68.68,-20.5 z m -2181.63,-3.6 -4.92,15.3 c 22.09,7.1 45.16,14.1 68.59,20.8 l 4.39,-15.4 c -23.24,-6.6 -46.14,-13.6 -68.06,-20.7 z m 2315.19,-44.8 c -20.99,8.7 -43.27,17.3 -66.22,25.6 l 5.43,15.1 c 23.19,-8.4 45.71,-17.1 66.94,-26 z m -2448.38,-4.5 -6.27,14.7 c 21.13,9 43.59,17.9 66.74,26.5 l 5.54,-15 c -22.91,-8.5 -45.12,-17.3 -66.01,-26.2 z m 2575.42,-58 c -19.2,11.3 -40.18,22.6 -62.37,33.4 l 7.02,14.4 c 22.56,-11 43.92,-22.5 63.48,-34 z m -2701.67,-5.9 -8.33,13.7 c 19.37,11.8 40.58,23.5 63.05,34.8 l 7.18,-14.3 c -22.08,-11.1 -42.9,-22.6 -61.9,-34.2 z m 2813.01,-79 c -14.82,15.6 -32.51,31.1 -52.58,46.1 l 9.59,12.8 c 20.78,-15.5 39.14,-31.6 54.57,-47.8 z m -2922.17,-8.3 -11.96,10.7 c 14.84,16.7 32.76,33.3 53.26,49.3 l 9.88,-12.5 c -19.75,-15.5 -36.97,-31.5 -51.18,-47.5 z m 2982.7,-111.2 c -1.63,21.5 -8.19,43.1 -19.52,64.3 l 14.11,7.5 c 12.39,-23.1 19.58,-46.9 21.37,-70.6 z m -3050.21,-34.6 c -1.19,7.9 -1.79,15.9 -1.79,23.8 0,24.1 5.54,48.3 16.46,71.9 l 14.53,-6.7 c -9.94,-21.5 -14.98,-43.4 -14.98,-65.2 0,-7.1 0.54,-14.3 1.61,-21.5 z m 3016.87,-100 -12.35,10.2 c 15.8,19.1 27.69,38.8 35.36,58.4 l 14.91,-5.8 c -8.28,-21.2 -21.04,-42.3 -37.92,-62.8 z m -2945.16,-25.8 c -18.82,18.5 -34.25,37.6 -45.86,56.8 l 13.69,8.3 c 10.92,-18.1 25.53,-36.1 43.4,-53.7 z m 2834.56,-67.3 -8.55,13.5 c 21.08,13.4 40.31,27.1 57.15,41 l 10.16,-12.4 c -17.35,-14.2 -37.12,-28.4 -58.76,-42.1 z M 6560.57,8432 c -22.04,12.5 -42.52,25.6 -60.87,38.7 l 9.33,13 c 17.89,-12.8 37.9,-25.5 59.47,-37.8 z m 2590.39,-48.7 -6.4,14.7 c 22.52,9.9 44.07,20.1 64.02,30.4 l 7.35,-14.2 c -20.26,-10.5 -42.12,-20.9 -64.97,-30.9 z m -2460.73,-13.4 c -22.95,9.4 -45.08,19.1 -65.79,28.9 l 6.86,14.5 c 20.44,-9.7 42.29,-19.3 64.95,-28.5 z m 2326.54,-37.4 -5.01,15.2 c 23.05,7.6 45.6,15.6 67.01,23.6 l 5.65,-14.9 c -21.62,-8.2 -44.39,-16.2 -67.65,-23.9 z M 6825.42,8322 c -23.39,7.3 -46.3,14.8 -68.08,22.5 l 5.34,15.1 c 21.58,-7.6 44.29,-15.1 67.49,-22.3 z m 2053.77,-29.6 -3.99,15.5 c 23.37,6 46.47,12.3 68.62,18.8 l 4.48,-15.4 c -22.32,-6.5 -45.57,-12.9 -69.11,-18.9 z M 6963.56,8284 c -23.61,5.7 -46.95,11.8 -69.35,17.9 l 4.25,15.5 c 22.24,-6.2 45.43,-12.2 68.9,-17.9 z m 1776.05,-23.7 -3.18,15.7 c 23.52,4.8 46.94,9.8 69.6,15 l 3.57,-15.6 c -22.78,-5.2 -46.33,-10.3 -69.99,-15.1 z m -1636.11,-6.7 c -23.66,4.6 -47.25,9.4 -70.14,14.3 l 3.38,15.7 c 22.77,-4.9 46.24,-9.7 69.78,-14.3 z m 1495.25,-18.7 -2.51,15.8 c 23.6,3.7 47.23,7.7 70.23,11.9 l 2.85,-15.8 c -23.12,-4.2 -46.86,-8.2 -70.57,-11.9 z m -1354.15,-5.3 c -23.76,3.6 -47.54,7.4 -70.66,11.3 l 2.68,15.8 c 23.02,-3.9 46.69,-7.7 70.35,-11.3 z m 1212.43,-14.5 -1.92,15.9 c 23.67,2.8 47.45,5.9 70.66,9.2 l 2.21,-15.9 c -23.31,-3.2 -47.18,-6.3 -70.95,-9.2 z m -1070.54,-4 c -23.73,2.7 -47.62,5.6 -71.02,8.6 l 2.06,15.9 c 23.31,-3.1 47.11,-5.9 70.75,-8.6 z m 928.23,-10.7 -1.38,15.9 c 23.69,2.1 47.56,4.3 70.95,6.7 l 1.64,-15.9 c -23.47,-2.4 -47.43,-4.7 -71.21,-6.7 z m -785.81,-2.9 c -23.85,1.9 -47.83,4 -71.26,6.2 l 1.51,16 c 23.35,-2.3 47.24,-4.3 71,-6.2 z m 643.12,-7.2 -0.88,16 c 23.77,1.3 47.7,2.8 71.14,4.4 l 1.12,-15.9 c -23.52,-1.7 -47.53,-3.2 -71.38,-4.5 z m -500.36,-1.8 c -23.77,1.2 -47.8,2.5 -71.41,4 l 1,16 c 23.53,-1.5 47.48,-2.8 71.17,-4 z m 357.45,-3.9 -0.4,16 c 23.74,0.6 47.71,1.4 71.24,2.3 l 0.64,-16 c -23.62,-0.9 -47.67,-1.7 -71.48,-2.3 z m -214.51,-0.8 c -23.88,0.5 -47.93,1.1 -71.48,1.9 l 0.52,16 c 23.48,-0.8 47.45,-1.4 71.26,-1.8 z m 90.06,-0.8 c -6.18,0 -12.37,0 -18.54,0.1 l 0.05,16 c 23.78,-0.1 47.62,0 71.27,0.2 l 0.17,-16 c -17.58,-0.2 -35.23,-0.3 -52.95,-0.3"
         style="fill:#aec3ff;fill-opacity:1;fill-rule:nonzero;stroke:none"
         id="path152" /><path
         d="m 7973.15,10170.4 c -22.55,9.4 -45.6,14.2 -68.48,14.2 v 16.6 c 25.09,0 50.28,-5.2 74.87,-15.4 z m -192.13,-32.6 -10.14,13.2 c 21.57,16.6 43.8,29.3 66.08,37.6 l 5.84,-15.5 c -20.73,-7.8 -41.52,-19.7 -61.78,-35.3 z m 304.55,-55.2 c -16.83,19.6 -34.18,36.7 -51.58,50.8 l 10.45,12.9 c 18.18,-14.7 36.26,-32.5 53.75,-52.9 z m -401.46,-52.3 -13.76,9.3 c 14.86,21.9 30.25,41.9 45.76,59.5 l 12.46,-11 c -15.04,-17.1 -30,-36.5 -44.46,-57.8 z m 482.84,-69.1 c -12.19,22.5 -24.86,43.7 -37.63,62.9 l 13.86,9.2 c 13.04,-19.7 25.96,-41.3 38.38,-64.2 z m -554.24,-59.1 -15.07,7 c 10.9,23.4 22.25,45.8 33.74,66.6 l 14.55,-8 c -11.31,-20.5 -22.49,-42.6 -33.22,-65.6 z m 615.89,-74.5 c -9.31,23.5 -19.02,46.3 -28.86,67.8 l 15.11,6.9 c 9.96,-21.7 19.79,-44.8 29.2,-68.6 z m -670.99,-62.2 -15.69,5.5 c 8.41,24 17.21,47.5 26.14,69.7 l 15.43,-6.1 c -8.85,-22.1 -17.55,-45.3 -25.88,-69.1 z m 719.32,-77.2 c -7.29,24 -14.94,47.6 -22.76,70.2 l 15.71,5.4 c 7.88,-22.8 15.6,-46.6 22.96,-70.8 z m -762.89,-63.9 -16.03,4.4 c 6.63,24.4 13.59,48.4 20.69,71.5 l 15.88,-4.9 c -7.04,-22.9 -13.95,-46.8 -20.54,-71 z m 801.32,-78.8 c -5.77,24.3 -11.86,48.4 -18.12,71.7 l 16.05,4.3 c 6.3,-23.4 12.43,-47.7 18.24,-72.1 z m -835.97,-64.8 -16.26,3.4 c 5.23,24.6 10.76,49 16.43,72.5 l 16.16,-3.8 c -5.64,-23.5 -11.14,-47.7 -16.33,-72.1 z m 866.43,-79.8 c -4.53,24.4 -9.35,48.8 -14.33,72.5 l 16.27,3.4 c 5,-23.8 9.85,-48.3 14.4,-72.9 z m -893.74,-65.5 -16.39,2.7 c 4.04,24.6 8.37,49.2 12.86,73.1 l 16.34,-3 c -4.47,-23.9 -8.78,-48.4 -12.81,-72.8 z m 917.45,-80.5 c -3.46,24.6 -7.19,49.2 -11.07,73.1 l 16.4,2.7 c 3.9,-24.1 7.65,-48.8 11.13,-73.5 z m -938.39,-66 -16.49,2.1 c 3.02,24.6 6.3,49.4 9.76,73.6 l 16.46,-2.3 c -3.45,-24.1 -6.72,-48.8 -9.73,-73.4 z m 956.12,-80.8 c -2.49,24.5 -5.24,49.2 -8.16,73.5 l 16.5,2 c 2.94,-24.4 5.69,-49.2 8.19,-73.9 z m -971.35,-66.3 -16.56,1.4 c 2.1,24.7 4.44,49.6 6.96,73.9 l 16.53,-1.7 c -2.51,-24.2 -4.84,-49 -6.93,-73.6 z m 983.64,-81.2 c -1.62,24.6 -3.46,49.5 -5.49,73.8 l 16.57,1.4 c 2.03,-24.5 3.88,-49.4 5.51,-74.1 z m -993.61,-66.4 -16.59,0.8 c 1.24,24.7 2.71,49.6 4.36,74.2 l 16.57,-1.2 c -1.64,-24.4 -3.1,-49.3 -4.34,-73.8 z m 1000.81,-81.4 c -0.79,24.6 -1.79,49.4 -2.98,74 l 16.6,0.8 c 1.19,-24.6 2.2,-49.6 2.99,-74.2 z m -1005.78,-66.5 -16.62,0.3 c 0.43,24.6 1.06,49.6 1.89,74.2 l 16.61,-0.5 c -0.82,-24.6 -1.45,-49.5 -1.88,-74 z m 1024.72,-81.4 h -16.62 v 1.8 c -0.01,24.2 -0.2,48.4 -0.57,72.2 l 16.62,0.2 c 0.37,-23.8 0.56,-48.2 0.57,-72.4 z m -1041.52,-66.8 c -0.34,22.8 -0.51,45.8 -0.51,68.6 v 5.6 h 16.62 v -5.6 c 0,-22.7 0.17,-45.7 0.51,-68.4 z m 1039.07,-81.7 -16.61,0.5 c 0.8,24.5 1.41,49.4 1.82,74 l 16.61,-0.3 c -0.4,-24.7 -1.02,-49.7 -1.82,-74.2 z M 7388.8,8449.6 c -1.17,24.5 -2.15,49.5 -2.93,74.2 l 16.62,0.6 c 0.76,-24.7 1.74,-49.6 2.91,-74 z m 1027.09,-81.5 -16.58,1.1 c 1.62,24.3 3.06,49.1 4.28,73.8 l 16.6,-0.8 c -1.23,-24.8 -2.67,-49.7 -4.3,-74.1 z m -1017.48,-66.7 c -2,24.4 -3.83,49.3 -5.44,74.1 l 16.58,1.1 c 1.6,-24.7 3.43,-49.5 5.43,-73.8 z m 1005.01,-81.4 -16.53,1.7 c 2.49,24.3 4.79,49.1 6.86,73.7 l 16.57,-1.4 c -2.08,-24.7 -4.4,-49.6 -6.9,-74 z m -990.12,-66.4 c -2.91,24.3 -5.64,49.1 -8.13,73.9 l 16.53,1.6 c 2.48,-24.6 5.2,-49.4 8.09,-73.5 z m 972.16,-81 -16.45,2.3 c 3.41,24.1 6.66,48.7 9.65,73.3 l 16.5,-2 c -3.01,-24.7 -6.26,-49.5 -9.7,-73.6 z m -951.58,-66.1 c -3.88,24.1 -7.6,48.8 -11.04,73.5 l 16.46,2.2 c 3.42,-24.5 7.12,-49.1 10.99,-73.1 z m 927.6,-80.6 -16.33,3 c 4.43,23.9 8.72,48.4 12.72,72.9 l 16.4,-2.7 c -4.02,-24.6 -8.32,-49.3 -12.79,-73.2 z m -900.67,-65.6 c -4.98,23.9 -9.8,48.4 -14.31,72.9 l 16.35,3 c 4.48,-24.4 9.27,-48.8 14.23,-72.5 z m 869.86,-79.8 -16.16,3.8 c 5.61,23.5 11.07,47.8 16.23,72.1 L 8347,7853 c -5.19,-24.5 -10.68,-48.9 -16.33,-72.5 z m -835.59,-64.9 c -6.25,23.4 -12.35,47.7 -18.13,72.1 l 16.18,3.9 c 5.74,-24.3 11.8,-48.5 18,-71.7 z m 796.68,-78.7 -15.9,4.9 c 7.03,22.9 13.9,46.8 20.43,70.9 l 16.04,-4.3 c -6.57,-24.3 -13.49,-48.4 -20.57,-71.5 z m -753.52,-63.7 c -7.82,22.8 -15.51,46.6 -22.82,70.8 l 15.9,4.8 c 7.26,-24 14.88,-47.6 22.64,-70.2 z m 704.45,-76.9 -15.44,6.2 c 8.79,22 17.45,45.3 25.73,69.1 l 15.69,-5.5 c -8.35,-24 -17.1,-47.5 -25.98,-69.8 z m -649.77,-61.7 c -9.9,21.8 -19.67,44.9 -29.01,68.7 l 15.46,6 c 9.25,-23.5 18.9,-46.3 28.68,-67.8 z m 586.87,-73.5 -14.58,8 c 11.23,20.5 22.33,42.6 33.01,65.7 l 15.08,-7 c -10.83,-23.5 -22.11,-45.9 -33.51,-66.7 z m -515.71,-57.8 c -12.94,19.7 -25.76,41.4 -38.1,64.4 l 14.64,7.8 c 12.11,-22.5 24.68,-43.7 37.36,-63.1 z m 431.68,-66.1 -12.54,10.9 c 14.91,17.2 29.75,36.8 44.09,58.2 l 13.81,-9.3 c -14.72,-22 -29.98,-42.1 -45.36,-59.8 z m -333.83,-47.6 c -18,14.9 -35.92,32.8 -53.25,53.4 l 12.7,10.7 c 16.7,-19.8 33.89,-37.1 51.13,-51.3 z m 214.1,-43.4 -6.13,15.5 c 20.58,8.1 41.2,20.3 61.31,36.2 l 10.29,-13.1 c -21.37,-16.9 -43.4,-29.8 -65.47,-38.6 z m -75.27,-13.9 c -24.99,0.5 -50.07,6.2 -74.53,16.9 l 6.66,15.2 c 22.46,-9.8 45.42,-15 68.22,-15.5 l -0.35,-16.6"
         style="fill:#aec3ff;fill-opacity:1;fill-rule:nonzero;stroke:none"
         id="path154" /><path
         d="m 6427.6,8661.2 h -49.12 v 11 h 49.12 z m 98.25,0 h -49.12 v 11 h 49.12 z m 98.26,0 h -49.12 v 11 h 49.12 z m 98.25,0 h -49.12 v 11 h 49.12 z m 98.26,0 h -49.13 v 11 h 49.13 z m 98.25,0 h -49.12 v 11 h 49.12 z m 98.26,0 H 6968 v 11 h 49.13 z m 98.26,0 h -49.14 v 11 h 49.14 z m 98.25,0 h -49.13 v 11 h 49.13 z m 98.25,0 h -49.13 v 11 h 49.13 z m 98.26,0 h -49.13 v 11 h 49.13 z m 98.25,0 h -49.12 v 11 h 49.12 z m 98.26,0 h -49.13 v 11 h 49.13 z m 98.25,0 h -49.13 v 11 h 49.13 z m 98.25,0 h -49.12 v 11 h 49.12 z m 98.26,0 h -49.13 v 11 h 49.13 z m 98.25,0 h -49.12 v 11 h 49.12 z m 98.26,0 h -49.13 v 11 h 49.13 z m 98.25,0 h -49.12 v 11 h 49.12 z m 98.26,0 h -49.13 v 11 h 49.13 z m 98.26,0 h -49.14 v 11 h 49.14 z m 98.25,0 h -49.13 v 11 h 49.13 z m 98.25,0 h -49.13 v 11 h 49.13 z m 98.26,0 h -49.13 v 11 h 49.13 z m 98.25,0 h -49.13 v 11 h 49.13 z m 98.25,0 h -49.12 v 11 h 49.12 z m 98.26,0 h -49.12 v 11 h 49.12 z m 98.25,0 h -49.12 v 11 h 49.12 z m 98.26,0 h -49.13 v 11 h 49.13 z m 98.25,0 h -49.12 v 11 h 49.12 z m 98.26,0 h -49.13 v 11 h 49.13 z m 55.63,0 h -6.5 v 11 h 6.5 v -11"
         style="fill:#aec3ff;fill-opacity:1;fill-rule:nonzero;stroke:none"
         id="path156" /><path
         d="m 7910.18,10143.8 h -11.02 v 49.1 h 11.02 z m 0,-98.3 h -11.02 v 49.2 h 11.02 z m 0,-98.2 h -11.02 v 49.1 h 11.02 z m 0,-98.3 h -11.02 v 49.2 h 11.02 z m 0,-98.2 h -11.02 v 49.1 h 11.02 z m 0,-98.3 h -11.02 v 49.2 h 11.02 z m 0,-98.2 h -11.02 v 49.1 h 11.02 z m 0,-98.3 h -11.02 v 49.1 h 11.02 z m 0,-98.2 h -11.02 v 49.1 h 11.02 z m 0,-98.3 h -11.02 v 49.1 h 11.02 z m 0,-98.3 h -11.02 v 49.2 h 11.02 z m 0,-98.2 h -11.02 v 49.1 h 11.02 z m 0,-98.3 h -11.02 v 49.2 h 11.02 z m 0,-98.2 h -11.02 v 49.1 h 11.02 z m 0,-98.3 h -11.02 v 49.2 h 11.02 z m 0,-98.2 h -11.02 v 49.1 h 11.02 z m 0,-98.3 h -11.02 v 49.1 h 11.02 z m 0,-98.2 h -11.02 v 49.1 h 11.02 z m 0,-98.3 h -11.02 v 49.1 h 11.02 z m 0,-98.2 h -11.02 v 49.1 h 11.02 z m 0,-98.3 h -11.02 v 49.1 h 11.02 z m 0,-98.3 h -11.02 v 49.2 h 11.02 z m 0,-98.2 h -11.02 v 49.1 h 11.02 z m 0,-98.3 h -11.02 v 49.2 h 11.02 z m 0,-98.2 h -11.02 v 49.1 h 11.02 z m 0,-98.3 h -11.02 v 49.2 h 11.02 z m 0,-98.2 h -11.02 v 49.1 h 11.02 z m 0,-98.3 h -11.02 v 49.1 h 11.02 z m 0,-98.2 h -11.02 v 49.1 h 11.02 z m 0,-98.3 h -11.02 v 49.1 h 11.02 z m 0,-98.2 h -11.02 v 49.1 h 11.02 z m 0,-55.7 h -11.02 v 6.5 h 11.02 v -6.5"
         style="fill:#aec3ff;fill-opacity:1;fill-rule:nonzero;stroke:none"
         id="path158" /><path
         d="m 24524.5,9098.9 -585.5,165 169.5,601.4 -1362.2,383.9 22.7,462.3 2029.1,1341.4 517.8,-145.9 -481.5,-1708.8 374.4,-105.5 -140.3,-497.9 -374.5,105.5 -169.5,-601.4 m -31,2132.7 -985.5,-659.6 740.8,-208.8 244.7,868.4"
         style="fill:#ccdbfd;fill-opacity:1;fill-rule:nonzero;stroke:none"
         id="path160" /><path
         d="m 10929.6,12498.5 179.2,614.8 c 299.9,-100.1 560.2,-121.1 811.2,-10.8 291.4,128 411.4,349.7 297.6,608.8 -106.7,242.9 -375.3,293.9 -670.9,164.1 -178.1,-78.2 -318.7,-197.9 -427.4,-313.3 l -465.2,80.7 -532.4,1432.2 1740.8,764.5 240,-546.6 -1206.4,-529.7 182.7,-504.1 c 100.9,78.1 193.3,142.8 351.2,212.1 550.5,241.8 1109.1,168.4 1393.6,-479.3 263.1,-599.2 5.1,-1166.4 -646.7,-1452.6 -453.4,-199.2 -856.4,-183 -1247.3,-40.8"
         style="fill:#f99746;fill-opacity:1;fill-rule:nonzero;stroke:none"
         id="path162" /><path
         d="m 20899.9,10462.4 c 0.7,20.3 16.4,238.1 348.2,249.5 0,0 -163.2,-19.5 -191.4,-91.2 0,0 111.1,88.6 201.6,60.1 90.5,-28.5 143.6,-187 144.2,-239.1 0.5,-52.2 -49.8,-220.3 -107.2,-234.5 -21.8,-5.5 -46.8,-4 -69.6,-0.1 15.3,-23.9 30.3,-50.2 44.6,-79.6 132.4,-271.8 -4.1,-537.4 -116.2,-508.1 -71.9,18.9 -92.2,-103.8 -92.2,-103.8 l -698.5,565.4 c 0,0 256.6,530.8 536.5,381.4"
         style="fill:#2c3a64;fill-opacity:1;fill-rule:nonzero;stroke:none"
         id="path164" /><path
         d="m 19536.4,7238.1 c 204.3,20.2 446.8,56.1 543.4,115.6 147.1,89.8 401.7,467 558.9,742.1 4.5,6.7 14.6,146 18,152.7 82,146 119.2,56.1 123.7,171.8 3.3,70.7 -4.5,131.3 -19.1,184.1 -19.1,69.6 -50.6,124.6 -83.1,166.2 -4.5,6.7 -9,13.4 -15.7,19 -53.9,64 -106.7,91 -106.7,91 -26.9,11.2 -56.1,-2.3 -86.4,-34.8 v -1.1 c -24.7,-25.9 -51.7,-65.2 -77.5,-114.6 -1.1,-1.1 -2.2,-2.2 -2.2,-3.3 -5.7,-10.1 -11.3,-21.4 -18,-33.7 -2.2,-2.3 -3.4,-5.6 -4.5,-7.9 -12.3,-25.8 -24.7,-52.7 -37,-80.8 -138.1,-300.9 -242.1,-798.4 -364.5,-934.2 -52.7,-58.4 -337.2,-131.2 -529.2,-216.6 -138.1,-60.6 -35.9,-230.1 99.9,-215.5"
         style="fill:#ffb27d;fill-opacity:1;fill-rule:nonzero;stroke:none"
         id="path166" /><path
         d="m 20656.7,2455.3 148.4,-55.2 c 0,0 644.3,893.7 723.7,1680 14.1,140.3 9.4,276.4 -21.2,402 0,0 6.3,35.9 17.3,99.5 5.1,29.7 11.4,65.4 18.5,106.4 21,120 49.8,284.2 82.7,471.2 75.9,430.4 174.1,980.5 250.4,1384.9 l -40,12.8 -432.5,139.6 -89.4,283.9 -322,84.7 c 0,0 -72,-140.7 -136.3,-805.5 -11.9,-87.2 -22.6,-183.4 -30.8,-287.7 -25,-318.3 -26.8,-713.1 30.7,-1164.5 14.8,-115.6 33.4,-234.9 56.6,-357.4 16.9,-89.9 19.4,-212.4 12.3,-353 -32.5,-642.7 -268.4,-1641.7 -268.4,-1641.7"
         style="fill:#aec3ff;fill-opacity:1;fill-rule:nonzero;stroke:none"
         id="path168" /><path
         d="m 20825.5,5971.9 699.4,-1390.3 c 5.1,29.7 11.4,65.4 18.5,106.4 21,120 49.8,284.2 82.7,471.2 75.9,430.4 174.1,980.5 250.4,1384.9 l -40,12.8 -432.5,139.6 -89.4,283.9 -440.5,115.9 c 0,0 -48.6,-859.2 -48.6,-1124.4"
         style="fill:#94b0ed;fill-opacity:1;fill-rule:nonzero;stroke:none"
         id="path170" /><path
         d="m 21133.2,6886.7 16.2,138.9 c 271.2,-72.1 995.9,201.3 995.9,201.3 0,0 262.7,-231 228.3,-784.7 -16.9,-270.2 -47.6,-1418.5 -79.8,-1758.3 -11.6,-123.1 -21.7,-210.8 -25.9,-245.8 l -0.1,-0.3 c -1.3,-10.7 2.5,-20.8 7.9,-30.1 47.3,-80.3 86.4,-163.8 118.6,-249.4 315.3,-840.2 -48.6,-1874.9 -48.6,-1874.9 l -94.4,38.1 c 0,0 -207.1,1151.5 -375.3,1660.2 -28.6,86.3 -56,154.1 -81.1,194.6 -73.1,118.1 -141,311 -202.6,540.4 -116.5,433.8 -210.2,998.1 -272.6,1433.7 -8.6,-0.4 -186.5,736.3 -186.5,736.3"
         style="fill:#aec3ff;fill-opacity:1;fill-rule:nonzero;stroke:none"
         id="path172" /><path
         d="m 20615,8570.6 c 85.2,-39.4 188,-66.3 312.4,-73.1 466.3,-25.6 572.2,383.2 591.4,654.5 -67.2,24.3 -126.1,22 -160,20.2 -12.6,-0.7 -25.4,-1.6 -38.1,-2.7 -46.3,-3.9 -91.4,15.8 -120,52.5 -53.2,68.2 -115.4,189.6 -156.7,358.1 l -20.1,-9.3 -336.4,-158.2 c 0,0 35.7,-109.5 62.1,-214.2 11.4,-45.3 21,-89.8 25.2,-124.2 4,-32.6 -14.4,-63.8 -44.6,-76.7 v 0 l -0.1,-0.4 c -3.4,-8.6 -76.5,-195 -115.1,-426.5"
         style="fill:#ffb27d;fill-opacity:1;fill-rule:nonzero;stroke:none"
         id="path174" /><path
         d="m 20687.5,9412.6 c 0,0 35.7,-109.4 62.1,-214.3 196.7,54.9 256.4,261.6 274.4,372.4 l -336.5,-158.1"
         style="fill:#ed985f;fill-opacity:1;fill-rule:nonzero;stroke:none"
         id="path176" /><path
         d="m 20646,9296.7 c 0,0 470.6,108.9 398.2,400.9 -72.3,292 -60.3,502.7 -363.7,445.5 -303.5,-57.2 -334.1,-183 -333.6,-286.3 0.4,-103.3 174.9,-580.9 299.1,-560.1"
         style="fill:#ffb27d;fill-opacity:1;fill-rule:nonzero;stroke:none"
         id="path178" /><path
         d="m 20320.4,10022.6 c 50.6,105.8 110.1,100.1 147.4,81.4 221.1,204.5 437.9,37.4 437.9,37.4 83.5,-201.6 264.4,-284 264.4,-284 0,0 -72.3,-74 -281.8,-72.4 -64,0.5 -128.3,29.9 -186.9,70.4 112.9,-113.8 245.4,-183 245.4,-183 -262.3,50.2 -438.2,353.8 -456.2,386 -22.2,-32.8 -64.7,-102.6 -68.3,-161.6 -4.8,-80.1 22.7,-235.8 -23.1,-241.7 0,0 -154.6,208.7 -78.8,367.5"
         style="fill:#2c3a64;fill-opacity:1;fill-rule:nonzero;stroke:none"
         id="path180" /><path
         d="m 21960.9,7762.8 c -16.5,18.5 -31.2,38.4 -44.1,59.3 -32.4,52.6 -53,111.9 -59.6,174 -25.8,244.4 -16,473.6 -18.1,612.9 v 0 c -25.7,19 -50.5,36.6 -73.7,53.3 -35.3,25.8 -66.6,49.9 -89.6,74.4 -25.3,26.6 -41.2,53.9 -43,84.6 -1.3,23.3 -0.6,47.2 1.8,71 1.1,11.3 2.5,22.5 4.2,33.8 18.2,118.3 67.6,225.7 67.6,225.7 -125.1,50.6 -412.6,18.1 -412.6,18.1 0,0 -29.1,-236.8 -138.1,-333.7 -44.1,-39.2 -286.8,-176.4 -397.2,-36.4 -44.9,57 -5.6,204.4 -2.4,216.1 0.1,0.2 -188.1,-57.7 -296.9,-162.5 -71.4,-68.8 -112.1,-198.1 -129,-249 0,0 82.9,3.7 149.5,-43.7 -12.8,-92.4 -19.1,-195.6 18.7,-296 3.5,-9.3 7.4,-18.4 11.6,-27.7 118.1,-254.4 336.7,-1308 336.7,-1308 67.2,-203.7 1423.7,37.2 1427.4,209.7 51.3,182.8 -181.8,476.7 -313.2,624.1"
         style="fill:#f99746;fill-opacity:1;fill-rule:nonzero;stroke:none"
         id="path182" /><path
         d="m 21238.4,7283 c 287,3.1 529.9,301 678.4,539.1 -32.4,52.6 -53,111.9 -59.6,174 -25.8,244.4 -16,473.6 -18.1,612.9 v 0 c -25.7,19 -50.5,36.6 -73.7,53.3 -35.4,25.8 -66.6,49.9 -89.6,74.4 -235,-397.2 -826.4,-1457.8 -437.4,-1453.7"
         style="fill:#ed7d2b;fill-opacity:1;fill-rule:nonzero;stroke:none"
         id="path184" /><path
         d="m 21796.7,2206.3 h 747.2 c 0,0 18,113.8 -21.1,200.2 -37.4,82.9 -95.9,120.6 -81.9,220.9 -47.5,-48.9 -124.9,-103.6 -232.9,-89.1 -13.2,-21.4 -85.4,-136.3 -129.7,-168 -48.8,-35.1 -266.5,-22.6 -281.6,-164"
         style="fill:#304b77;fill-opacity:1;fill-rule:nonzero;stroke:none"
         id="path186" /><path
         d="m 20192.4,2206.3 h 747.2 c 0,0 28,119.1 -21.1,200.2 -43.4,71.8 -26.8,112.7 5.4,172 -33.9,-13.8 -77.6,-26.4 -125.9,-23.7 -37.2,2.2 -76.6,19.1 -111.1,39.1 -32.1,-36.7 -169.8,-192.7 -212.9,-223.6 -48.8,-35.1 -266.5,-22.6 -281.6,-164"
         style="fill:#304b77;fill-opacity:1;fill-rule:nonzero;stroke:none"
         id="path188" /><path
         d="m 18054.3,8208.6 c 93.9,791.2 -424.9,1435.2 -1407.5,1551.9 -969.9,115.2 -1585.3,-381.1 -1682.3,-1197.8 -94,-791.2 427.8,-1409.7 1397.7,-1524.9 969.9,-115.2 1598.1,379.6 1692.1,1170.8 z m -5446,-4555.6 1211,1370.3 c 588.7,-600.5 1108.6,-908.2 1861.5,-997.6 1097.5,-130.4 1783.1,629.4 2053.2,1813.8 -477.8,-318.5 -1106.4,-489.8 -1884.9,-397.3 -1939.7,230.4 -3063,1451 -2844.7,3288.6 213.8,1799.4 1762.4,2961.3 3778.7,2721.8 1199.6,-142.5 1866.6,-519.4 2462.6,-1276.1 562.3,-713.9 868.2,-1733.8 656,-3520.4 -344.2,-2896.8 -1944.6,-4712.6 -4484.1,-4410.9 -1301.7,154.6 -2130.7,693.1 -2809.3,1407.8"
         style="fill:#aec3ff;fill-opacity:1;fill-rule:nonzero;stroke:none"
         id="path190" /><path
         d="m 20093.1,7081.6 30.1,-116 c 0,0 373.1,78.3 455.1,96.2 h 1.1 c 140.3,33.7 297.5,74.1 430,119 93.2,32.6 174,67.4 229,102.2 5.6,3.4 10.1,6.7 15.7,11.2 131.4,95.4 287.4,376.1 408.7,677 16.8,41.5 32.5,83.1 48.3,123.5 56.1,150.4 101,298.6 127.9,426.6 16.9,76.4 28.1,146 30.4,203.2 1.1,20.2 2.2,39.3 1.1,57.3 -2.3,325.6 -163.9,370.5 -163.9,370.5 -3.4,1.1 -6.8,2.2 -11.3,3.3 -28,4.5 -57.2,-14.6 -87.5,-51.6 -38.2,-46 -78.6,-121.3 -120.2,-212.2 -63.9,-144.8 -131.3,-332.3 -194.2,-518.7 -34.8,-102.1 -68.5,-204.3 -102.1,-298.6 -19.1,-57.3 -38.2,-111.2 -56.2,-160.6 -34.8,-94.3 -66.2,-170.6 -94.3,-218.9 -17.9,-31.4 -69.6,-75.2 -138.1,-124.6 -119,-86.4 -809.6,-488.8 -809.6,-488.8"
         style="fill:#ffb27d;fill-opacity:1;fill-rule:nonzero;stroke:none"
         id="path192" /><path
         d="m 21454.4,8879.1 c 216.1,59.6 416.5,-96.9 416.5,-96.9 -2.7,325 -164.5,369.5 -164.5,369.5 -65.1,27 -174.2,-98 -252,-272.6"
         style="fill:#f99746;fill-opacity:1;fill-rule:nonzero;stroke:none"
         id="path194" /><path
         d="m 20165.2,7123.7 c 0,0 -190,-74.1 -226.8,-102.9 -36.8,-28.8 -107.5,-123 -120.1,-172.6 0,0 0.6,-20.4 19.6,-20.4 18.9,0.1 61.5,72.8 92.6,61.2 0,0 -39.6,-96.4 -62.9,-120.8 -23.3,-24.4 -36.6,-147.1 -31.8,-173.7 4.7,-26.6 164.7,100.4 231.7,158.1 35.7,30.7 34.7,105.3 45.7,189.6 9.7,73.9 213.7,116.7 213.7,116.7 l -161.7,64.8"
         style="fill:#ffb27d;fill-opacity:1;fill-rule:nonzero;stroke:none"
         id="path196" /><path
         d="M 12034.1,3029.5 H 9155.47 v 1093.7 h 2888.23 c 233.4,0 422.7,-189.3 422.7,-422.7 v -238.8 c 0,-238.7 -193.6,-432.2 -432.3,-432.2"
         style="fill:#fcecdb;fill-opacity:1;fill-rule:nonzero;stroke:none"
         id="path198" /><path
         d="m 14935.7,3673.2 v -164.5 c 0,-88 -22,-170.3 -60.7,-241.1 -77.5,-142.4 -221.8,-238.1 -387,-238.1 H 9066.81 c -35.88,0 -64.94,31.1 -64.94,69.4 v 24.7 c 0,38.3 29.06,69.4 64.94,69.4 h 3304.69 c 17.7,23.1 33.3,48 46.4,74.6 31,62.4 48.5,133.6 48.5,209.1 v 209.2 c 0,38.4 -4.7,75.8 -13.4,111.3 -14.8,60.2 -41.3,115.3 -76.6,162.4 H 9066.81 c -35.88,0 -64.94,31.1 -64.94,69.5 v 24.6 c 0,38.4 29.06,69.5 64.94,69.5 h 5448.49 c 192,0 354,-137.8 404.2,-326 10.6,-39.4 16.2,-81 16.2,-124"
         style="fill:#699dee;fill-opacity:1;fill-rule:nonzero;stroke:none"
         id="path200" /><path
         d="M 14919.5,3797.2 H 12453 c -14.8,60.2 -41.3,115.3 -76.6,162.4 H 9066.81 c -35.88,0 -64.94,31.1 -64.94,69.5 v 24.6 c 0,38.4 29.06,69.5 64.94,69.5 h 5448.49 c 192,0 354,-137.8 404.2,-326"
         style="fill:#548ee2;fill-opacity:1;fill-rule:nonzero;stroke:none"
         id="path202" /><path
         d="m 9155.47,3576.3 401.41,-18.4 -401.41,-11 z"
         style="fill:#f4d2b8;fill-opacity:1;fill-rule:nonzero;stroke:none"
         id="path204" /><path
         d="m 9155.47,3404.7 954.93,-18.4 -954.93,-11 z"
         style="fill:#f4d2b8;fill-opacity:1;fill-rule:nonzero;stroke:none"
         id="path206" /><path
         d="m 10122.7,2181.1 h 2825.8 v 850.7 h -2850.7 c -211.68,0 -383.31,-171.7 -383.31,-383.4 v -59.1 c 0,-225.5 182.77,-408.2 408.21,-408.2"
         style="fill:#505aba;fill-opacity:1;fill-rule:nonzero;stroke:none"
         id="path208" /><path
         d="M 12812.4,2181.1 H 16033 v 850.7 h -3229.4 c -215.3,0 -389.8,-174.5 -389.8,-389.8 v -62.3 c 0,-220.2 178.5,-398.6 398.6,-398.6"
         style="fill:#fcecdb;fill-opacity:1;fill-rule:nonzero;stroke:none"
         id="path210" /><path
         d="m 12201,2181.1 h 3940.7 c 32.7,0 59.2,26.5 59.2,59.2 v 8.8 c 0,32.7 -26.5,59.2 -59.2,59.2 H 12201 c -32.7,0 -59.2,-26.5 -59.2,-59.2 v -8.8 c 0,-32.7 26.5,-59.2 59.2,-59.2"
         style="fill:#505aba;fill-opacity:1;fill-rule:nonzero;stroke:none"
         id="path212" /><path
         d="m 12201,2904.5 h 3940.7 c 32.7,0 59.2,26.5 59.2,59.2 v 8.9 c 0,32.7 -26.5,59.2 -59.2,59.2 H 12201 c -32.7,0 -59.2,-26.5 -59.2,-59.2 v -8.9 c 0,-32.7 26.5,-59.2 59.2,-59.2"
         style="fill:#505aba;fill-opacity:1;fill-rule:nonzero;stroke:none"
         id="path214" /><path
         d="m 16033,2606.4 -438.8,-14.3 438.8,-8.6 z"
         style="fill:#f4d2b8;fill-opacity:1;fill-rule:nonzero;stroke:none"
         id="path216" /><path
         d="m 16033,2802.2 -1043.9,-14.3 1043.9,-8.6 z"
         style="fill:#f4d2b8;fill-opacity:1;fill-rule:nonzero;stroke:none"
         id="path218" /><path
         d="m 14999.9,2790.7 c 0,0 44.7,-36.5 59.5,-96.6 2.6,-10.5 4.3,-21.8 4.7,-33.6 2.4,-79.8 0,-260.5 0,-260.5 l 132,90.3 131.8,-90.3 v 244.9 c 0,46.3 -11.3,91.3 -32.3,120.8 -10.2,14.3 -22.5,25 -36.5,25 h -259.2"
         style="fill:#f99746;fill-opacity:1;fill-rule:nonzero;stroke:none"
         id="path220" /><path
         d="m 14999.9,2790.7 c 0,0 44.7,-36.5 59.5,-96.6 l 264.7,-3.6 c 0,0 -10.4,86.1 -65,100.2 h -259.2"
         style="fill:#ed7d2b;fill-opacity:1;fill-rule:nonzero;stroke:none"
         id="path222" /><path
         d="M 12495.7,4120.9 H 9456.03 v 1249.9 h 3050.27 c 257.2,0 465.7,-208.5 465.7,-465.7 v -308 c 0,-263 -213.2,-476.2 -476.3,-476.2"
         style="fill:#fcecdb;fill-opacity:1;fill-rule:nonzero;stroke:none"
         id="path224" /><path
         d="m 12973.7,4885.8 v -269 c -0.8,-114.9 -58.6,-214.6 -143.5,-267.9 -41.9,-26.1 -90.2,-41.1 -141.6,-41.1 H 9363.49 c -38.96,0 -70.56,-34.7 -70.56,-77.6 v -31.7 c 0,-42.9 31.6,-77.6 70.56,-77.6 h 5744.21 c 164.9,0 310.5,90.1 398.5,228 55.5,87 88,192.8 88,307.1 v 212.3 c 0,78.3 -16.2,152.4 -45.3,218.5 -73.9,168 -230.3,283.9 -411.5,283.9 H 9363.49 c -38.96,0 -70.56,-34.7 -70.56,-77.5 v -31.8 c 0,-42.8 31.6,-77.6 70.56,-77.6 h 3335.31 c 79.7,0 151.9,-37.3 202.3,-97 44.6,-52.9 72.1,-123.4 72.6,-201"
         style="fill:#f99746;fill-opacity:1;fill-rule:nonzero;stroke:none"
         id="path226" /><path
         d="m 9292.93,4230.2 v -31.7 c 0,-42.9 31.6,-77.6 70.56,-77.6 h 5744.21 c 164.9,0 310.5,90.1 398.5,228 h -2676 c -41.9,-26.1 -90.2,-41.1 -141.6,-41.1 H 9363.49 c -38.96,0 -70.56,-34.7 -70.56,-77.6"
         style="fill:#ed7d2b;fill-opacity:1;fill-rule:nonzero;stroke:none"
         id="path228" /><path
         d="m 9456.03,4745.8 426.26,-21 -426.26,-12.7 z"
         style="fill:#f4d2b8;fill-opacity:1;fill-rule:nonzero;stroke:none"
         id="path230" /><path
         d="m 9456.03,5033.5 1014.07,-21 -1014.07,-12.7 z"
         style="fill:#f4d2b8;fill-opacity:1;fill-rule:nonzero;stroke:none"
         id="path232" /><path
         d="m 12443.6,5016.6 c 0,0 -66.9,-39.6 -89.1,-104.8 -3.9,-11.3 -6.4,-23.5 -6.9,-36.4 -3.7,-86.6 0,-282.4 0,-282.4 l -197.6,97.9 -197.1,-97.9 v 265.5 c 0,50.2 16.9,99 48.3,131 15.2,15.5 33.7,27.1 54.6,27.1 h 387.8"
         style="fill:#f99746;fill-opacity:1;fill-rule:nonzero;stroke:none"
         id="path234" /><path
         d="m 12443.6,5016.6 c 0,0 -66.9,-39.6 -89.1,-104.8 l -396,-3.8 c 0,0 15.6,93.2 97.3,108.6 h 387.8"
         style="fill:#ed7d2b;fill-opacity:1;fill-rule:nonzero;stroke:none"
         id="path236" /><path
         d="m 16533.6,9654.9 c 19.3,-22.1 21.7,-46.8 12.2,-73.2 l -0.2,-0.4 c -17.7,-48.7 -76,-103.2 -143.7,-157.6 -8.7,-7 -16.4,-13.3 -23.1,-19.2 -1.7,-1.6 -3.5,-3.1 -5.1,-4.7 -1.4,-1.2 -2.7,-2.4 -4,-3.6 -63.2,-58.2 -39.4,-71.5 -152.9,-189.7 -129.4,-134.6 -218.5,-137 -243.8,-124.8 -21.4,10.5 22.1,81.9 70.4,162.2 2.3,3.8 4.6,7.7 7,11.7 6.4,10.6 12.8,21.5 19.2,32.2 56.6,96.6 42.1,141.9 28.6,285.6 -10.9,116.8 -181.7,652.5 -181.7,652.5 l 248,42.8 c 0,0 74.7,-426.6 156.9,-492.3 44,-35.1 93.2,-35.5 135.5,-61.5 3,-1.8 6,-3.6 8.8,-5.5 24.1,-15.9 48.5,-32.4 67.9,-54.5"
         style="fill:#ffb27d;fill-opacity:1;fill-rule:nonzero;stroke:none"
         id="path238" /><path
         d="m 16533.6,9654.9 c 19.3,-22.1 21.7,-46.8 12.2,-73.2 l -0.2,-0.4 c -21.6,-48.7 -78.5,-102.9 -143.9,-157.1 -8.6,-7.1 -16.2,-13.6 -22.9,-19.7 -1.7,-1.6 -3.5,-3.1 -5.1,-4.7 -1.4,-1.2 -2.7,-2.4 -4,-3.6 -63.2,-58.2 -39.4,-71.5 -152.9,-189.7 -129.4,-134.6 -218.5,-137 -243.8,-124.8 -21.4,10.5 22.1,81.9 70.4,162.2 25.2,9.2 142.2,56.7 230.6,169.9 77.9,99.4 129.9,227.1 182.9,301.1 3,-1.8 6,-3.6 8.8,-5.5 24.1,-15.9 48.5,-32.4 67.9,-54.5"
         style="fill:#233862;fill-opacity:1;fill-rule:nonzero;stroke:none"
         id="path240" /><path
         d="m 14534.3,9809.7 c -15.3,-76.5 -124.4,-63.8 -246.3,-34 -121.9,29.8 -92.9,-5.6 -266.4,13.6 -173.5,19.2 -226,83.9 -231.3,109.7 -4.7,22.9 81,31 172.9,41.5 11.6,1.3 23.2,2.8 34.8,4.2 103.8,13 179.8,80 274.1,135 89.3,52.1 222.6,264.4 222.6,264.4 l 237.9,-18.8 c 0,0 -124.9,-189.6 -173.1,-272.1 -28.4,-48.5 -26.9,-112.6 -23.4,-162.1 1.8,-26.9 3.6,-54.4 -1.8,-81.4"
         style="fill:#ffb27d;fill-opacity:1;fill-rule:nonzero;stroke:none"
         id="path242" /><path
         d="m 14288,9775.7 c -121.9,29.8 -92.9,-5.6 -266.4,13.6 -173.5,19.2 -226,83.9 -231.3,109.7 -4.7,22.9 81,31 172.9,41.5 l 0.9,-1.7 c 0,0 104,-73.8 248.4,-77.2 117.7,-2.9 242.3,30.8 323.6,29.5 1.8,-26.9 3.6,-54.4 -1.8,-81.4 -15.3,-76.5 -124.4,-63.8 -246.3,-34"
         style="fill:#233862;fill-opacity:1;fill-rule:nonzero;stroke:none"
         id="path244" /><path
         d="m 15446,11330.9 222.3,-598.4 290.4,-781.4 c 0,0 78.8,-7.6 154.2,14.1 69.5,20.1 149.2,72.6 149.2,72.6 0,0 -80.6,839 -231,1320.6 -38.5,123.6 -81.7,223.6 -129.4,279.9 -233.1,275.5 -455.7,-307.4 -455.7,-307.4"
         style="fill:#ed7d2b;fill-opacity:1;fill-rule:nonzero;stroke:none"
         id="path246" /><path
         d="m 15672.1,12281.3 c 130.3,42 476.8,-1.9 847.3,-70.1 79.3,-14.6 159.4,21.2 201.1,90.2 l 17.6,29 901.7,70.4 c 0,0 289,-656.6 134.6,-1080.2 -43.3,-118.8 -495.6,-133.1 -876.6,-102.4 -447,36 -949,308.2 -1013.8,321.2 -105.9,21.1 -148.3,-190.8 -254.3,-413.4 -106,-222.6 -996.3,-985.7 -996.3,-985.7 0,0 -136.9,-1.4 -193.4,19.8 -60.8,22.8 -83,52.4 -83,52.4 0,0 986.5,1962.8 1315.1,2068.8"
         style="fill:#f99746;fill-opacity:1;fill-rule:nonzero;stroke:none"
         id="path248" /><path
         d="m 16614.4,13459.1 c 271.9,-245.8 897,-475.8 900.8,-474.3 0,0 212.3,-142.7 365.2,-86.1 254.9,94.3 465.9,460.2 143,894.2 -161.1,216.4 -300.1,292.2 -252.2,566.2 52,296.9 -63.3,679.6 -406.4,713.4 -28.6,2.8 -201.6,35.2 -327.9,2.7 -322,-82.8 -875.2,-1438.9 -422.5,-1616.1"
         style="fill:#a9453d;fill-opacity:1;fill-rule:nonzero;stroke:none"
         id="path250" /><path
         d="m 16986.2,13820 c -1.6,-0.5 141,-90.1 255.6,-68.6 107.8,20.1 209.4,160.3 207.9,160.8 -43.9,12.5 -73.2,65.6 -50.7,329.1 l -20.5,-2.3 -344.8,-39.4 c 0,0 -1,-107.4 -9,-208 -6.7,-84.4 -18.4,-164.1 -38.5,-171.6"
         style="fill:#ffb27d;fill-opacity:1;fill-rule:nonzero;stroke:none"
         id="path252" /><path
         d="m 17033.7,14199.6 c 0,0 -1,-107.4 -9,-208 190.3,-10.2 304.8,154.8 353.8,247.4 l -344.8,-39.4"
         style="fill:#ed975d;fill-opacity:1;fill-rule:nonzero;stroke:none"
         id="path254" /><path
         d="m 16962.5,14109.6 c 0,0 448.6,-44.2 471.9,235.5 23.2,279.8 96.8,462.6 -188.7,502.6 -285.4,40.1 -350,-62 -380.5,-153.5 -30.5,-91.5 -18.8,-565.9 97.3,-584.6"
         style="fill:#ffb27d;fill-opacity:1;fill-rule:nonzero;stroke:none"
         id="path256" /><path
         d="m 17010.6,14891.9 c 0,0 56.5,-341.8 311.9,-422.9 186.4,-59.2 270.8,-20.2 270.8,-20.2 0,0 -89.7,119 -121.6,284.4 -9.4,48.8 -44,88.9 -91.2,104.4 -132.4,43.6 -292.9,162.7 -369.9,54.3"
         style="fill:#a9453d;fill-opacity:1;fill-rule:nonzero;stroke:none"
         id="path258" /><path
         d="m 17095.1,14819 c 0,0 -84.5,-18.8 -159.5,-127.9 -40.9,-59.7 -88.3,-209.9 -80.2,-276.5 0,0 -78.5,316.4 35.9,434.1 121.4,124.7 203.8,-29.7 203.8,-29.7"
         style="fill:#a9453d;fill-opacity:1;fill-rule:nonzero;stroke:none"
         id="path260" /><path
         d="m 17794,12900.9 c -8,-34 -14.8,-65.2 -20.4,-94.1 -9.2,-46.5 -15.4,-86.6 -19.9,-122 -13.7,-110.4 -9.5,-175.7 -18.8,-247.2 -5.1,-40 -14.6,-82 -33.6,-134.7 -18.5,-51.2 -506,-96.9 -783.4,-78.5 -88,5.7 -151,24.2 -179,38.7 -83.9,43.6 -108.2,-11.6 -102.6,801.3 3,441.1 374.3,833.9 374.3,833.9 0,0 30.4,-188.4 408.1,35.8 13.4,7.9 162.2,-212.4 305.3,-483.6 157.8,-299.6 114.5,-363 70,-549.6"
         style="fill:#aec3ff;fill-opacity:1;fill-rule:nonzero;stroke:none"
         id="path262" /><path
         d="m 15668.3,10732.5 290.4,-781.4 c 0,0 78.8,-7.6 154.2,14.1 69.5,20.1 149.2,72.6 149.2,72.6 0,0 -80.6,839 -231,1320.6 l -362.8,-625.9"
         style="fill:#f99746;fill-opacity:1;fill-rule:nonzero;stroke:none"
         id="path264" /><path
         d="m 17010.6,13898.4 c 0,0 -319.1,-27.3 -425.7,-334.9 -56.8,-163.9 -366.6,-997.8 -366.6,-997.8 0,0 248.4,-34 339.6,57.3 91.3,91.3 310.6,793.7 310.6,793.7 l 142.1,481.7"
         style="fill:#aec3ff;fill-opacity:1;fill-rule:nonzero;stroke:none"
         id="path266" /><path
         d="m 15426.3,12777.1 -92.1,36.5 c 0,0 -55.4,12.2 -85.3,2.8 -29.9,-9.3 -104.7,-8.4 -105.1,-20.6 -0.3,-12.3 85.3,-50.5 85.3,-50.5 l 2.7,1 c -32.5,-73.7 -195.3,-115.8 -203.1,-142.8 -9.5,-32.8 66.2,-49.7 107.4,-59.9 41.3,-10.3 142.3,-9.2 192.2,43.3 36.4,38.4 98,91.2 98,91.2 v 99"
         style="fill:#ffb27d;fill-opacity:1;fill-rule:nonzero;stroke:none"
         id="path268" /><path
         d="m 17066,14274.6 c 0,0 -18.8,-46 -68.4,-46 -49.7,0 -63.1,7.4 -72.5,17.9 -9.4,10.6 -18.8,30.8 -18.8,30.8 0,0 82.4,16.3 159.7,-2.7"
         style="fill:#ffffff;fill-opacity:1;fill-rule:nonzero;stroke:none"
         id="path270" /><path
         d="m 16323.7,12885.4 -685.6,160 c 0,0 -141.1,-56.5 -80.4,-160 0,0 620.6,-388.8 854.1,-346.9 265.6,47.6 445.4,545.6 445.4,545.6 l -533.5,-198.7"
         style="fill:#aec3ff;fill-opacity:1;fill-rule:nonzero;stroke:none"
         id="path272" /><path
         d="m 17753.7,12684.8 c -13.7,-110.4 -9.5,-175.7 -18.8,-247.2 -352.9,-1.2 -824.7,272.5 -824.7,272.5 l 843.5,-25.3"
         style="fill:#94b0ed;fill-opacity:1;fill-rule:nonzero;stroke:none"
         id="path274" /><path
         d="m 16910.2,12941.5 c 0,0 549.8,16.4 642.4,328.8 101.8,343.3 215.8,-141.1 215.8,-141.1 l -60.6,-309.2 h -603.1 l -194.5,121.5"
         style="fill:#94b0ed;fill-opacity:1;fill-rule:nonzero;stroke:none"
         id="path276" /><path
         d="m 15065.7,12456.4 -947.8,-241.4 -184.1,722.7 947.9,241.4 -240.1,942.6 743.6,189.4 240.1,-942.7 947.8,241.4 184,-722.6 -947.8,-241.4 240.1,-942.6 -743.6,-189.4 -240.1,942.6"
         style="fill:#505aba;fill-opacity:1;fill-rule:nonzero;stroke:none"
         id="path278" /><path
         d="m 16910.3,12869.1 -62.5,76.8 c 0,0 -42.3,37.7 -73,44.1 -30.7,6.4 -95.5,43.8 -101.8,33.3 -6.3,-10.5 49.8,-85.7 49.8,-85.7 l 2.8,-0.4 c -64.4,-48.4 -226.9,-5.7 -247,-25.4 -24.3,-24 33.5,-75.7 64.5,-104.8 31,-29.1 119.7,-77.6 188.8,-56 50.6,15.7 130.1,31.7 130.1,31.7 l 48.3,86.4"
         style="fill:#ffb27d;fill-opacity:1;fill-rule:nonzero;stroke:none"
         id="path280" /><path
         d="m 17419.9,13934.3 c 0,0 355.7,-23.6 444.9,-162.8 89.2,-139.1 199.8,-845.7 153.5,-1088.4 -46.4,-242.7 -1189.2,46.4 -1189.2,46.4 l 36.5,210.5 c 0,0 659.5,-3.8 697,82.1 50,114.2 -142.7,912.2 -142.7,912.2"
         style="fill:#aec3ff;fill-opacity:1;fill-rule:nonzero;stroke:none"
         id="path282" /><path
         d="m 7719.55,7053.5 c 0,0 199.02,-79.3 266.13,-58.1 67.11,21.1 182.82,85.9 203.65,139.1 20.83,53.2 -136.54,-13.9 -189.76,0 -53.23,13.9 -111.08,30.1 -215.22,0 -104.14,-30.1 -64.8,-81 -64.8,-81"
         style="fill:#ffb27d;fill-opacity:1;fill-rule:nonzero;stroke:none"
         id="path284" /><path
         d="m 5910.63,2477 c 0,0 15.01,-242.1 59.96,-299 h 691.68 c -4.37,24.1 -23.95,83.7 -110.43,98.8 -109.3,19 -292.24,95.8 -358.38,240.3 -69.67,151.9 -282.83,-40.1 -282.83,-40.1"
         style="fill:#334272;fill-opacity:1;fill-rule:nonzero;stroke:none"
         id="path286" /><path
         d="m 4683.18,2510.7 c 0,0 -45.61,-301.3 13.6,-306.8 7.87,-0.7 284.93,-0.2 360.26,-11.5 123.01,-18.4 328.19,-2.3 328.19,-2.3 25.7,-1.1 42.54,26.7 29.45,48.9 -14.36,24.3 -41.74,50.2 -93.96,60.3 -108.93,20.9 -290.46,100.9 -354.1,246.5 -66.95,153.2 -283.44,-35.1 -283.44,-35.1"
         style="fill:#334272;fill-opacity:1;fill-rule:nonzero;stroke:none"
         id="path288" /><path
         d="m 6235.85,5698.4 c 0,0 -173.92,-608.6 -672.38,-1665.4 C 5065.01,2976.2 5026.55,2494.6 5026.55,2494.6 l -343.37,16.1 c 0,0 32.28,1257.9 267.73,1791.2 235.46,533.3 283.43,1992.7 283.43,1992.7 l 1001.51,-596.2"
         style="fill:#94b0ed;fill-opacity:1;fill-rule:nonzero;stroke:none"
         id="path290" /><path
         d="m 6515.07,6222 c 0,0 13.85,-942.4 -149.19,-2099.4 C 6202.83,2965.6 6258.1,2474.4 6258.1,2474.4 l -390.5,-13 c 0,0 -233.37,1157.5 -166.46,1736.6 66.91,579.2 -319.56,1987.3 -319.56,1987.3 l 1133.49,36.7"
         style="fill:#aec3ff;fill-opacity:1;fill-rule:nonzero;stroke:none"
         id="path292" /><path
         d="m 5744.54,8427.2 184.18,-136.4 266.18,56 c -3.68,24.3 -21.25,124.9 -37.25,216.1 -0.97,5.3 -1.94,10.7 -2.84,15.9 -13.71,77.6 -25.54,144.2 -25.54,144.2 l -248.62,123.9 -92.69,46.2 c 0.24,-1.6 7.19,-86 8.15,-98.4 17.4,-218.8 -51.57,-367.5 -51.57,-367.5"
         style="fill:#ffb27d;fill-opacity:1;fill-rule:nonzero;stroke:none"
         id="path294" /><path
         d="m 6550.85,6190.9 c 16.81,-168.2 -1328.78,-367.1 -1333.93,-85.1 -4.44,248.1 143.3,1613.5 189.12,1808.9 80.95,345.7 153.71,543.2 307.83,588.6 56.93,16.5 266.73,-37.9 418.35,-81.9 10.55,-3 21.11,-6.6 31.24,-10.9 37.49,-15 71.51,-36.8 100.39,-64 40.82,-38.3 71.51,-87 88.03,-142.3 23.33,-78.7 50.27,-179.5 72.07,-290.8 19.71,-99.8 35.4,-207.8 40.82,-315.7 1.25,-22.4 1.94,-44.7 2.08,-66.9 0.84,-82.5 8.05,-189.1 18.19,-307.6 6.39,-74.7 14.02,-154.1 21.94,-235.1 2.36,-23.1 4.72,-46.5 6.94,-69.9 1.67,-16.3 27.49,-549.7 34.99,-692.6 0.14,-2.1 0.14,-3.9 0.28,-5.7 l 0.14,-0.7 c 0,-1.9 0.14,-4 0.27,-6 0.7,-12.7 1.12,-20.5 1.25,-22.3"
         style="fill:#f99746;fill-opacity:1;fill-rule:nonzero;stroke:none"
         id="path296" /><path
         d="m 5814.77,8790.9 c 54.59,-104.5 258.03,-194.8 342.88,-228 -0.97,5.3 -1.94,10.7 -2.84,15.9 -13.71,77.6 -25.54,144.2 -25.54,144.2 l -248.62,123.9 c -54.95,0.9 -88.4,-13 -65.88,-56"
         style="fill:#fca56b;fill-opacity:1;fill-rule:nonzero;stroke:none"
         id="path298" /><path
         d="m 6250.08,8737.5 c 0,0 -448.52,-139.9 -531.35,140.8 -82.84,280.6 -196.51,451.6 86.35,552.8 282.87,101.2 370.37,10.6 420.8,-76.3 50.44,-87 138.74,-573.6 24.2,-617.3"
         style="fill:#ffb27d;fill-opacity:1;fill-rule:nonzero;stroke:none"
         id="path300" /><path
         d="m 6208.27,9381.8 c 0,0 -28.6,-326.6 -96.15,-312.4 -67.54,14.2 -128.79,24.7 -118.9,-73.8 9.89,-98.4 103.55,-212.1 -104.61,-229.5 -208.15,-17.4 -507.38,519.4 -450.2,621 164.99,293.3 1008.33,352.5 769.86,-5.3"
         style="fill:#163560;fill-opacity:1;fill-rule:nonzero;stroke:none"
         id="path302" /><path
         d="m 6176.28,8496.1 c -5.84,2.4 -362.1,107.5 -400.8,94.8 -38.7,-12.8 -61.61,-87.7 -61.61,-87.7 l 550.02,-156.7 c 0,0 -13.17,118.2 -87.61,149.6"
         style="fill:#ed7d2b;fill-opacity:1;fill-rule:nonzero;stroke:none"
         id="path304" /><path
         d="m 7784.35,7134.5 c 0,0 63.64,53.8 119.18,65.9 55.54,12.2 104.14,62.5 104.14,38.2 0,-24.3 -41.66,-83.3 -41.66,-104.1 0,-20.8 -181.66,0 -181.66,0"
         style="fill:#ffb27d;fill-opacity:1;fill-rule:nonzero;stroke:none"
         id="path306" /><path
         d="m 6485.04,7223.2 c -285.75,108.5 -502.36,529.9 -502.36,529.9 l 482.09,-155.4 c 1.25,-22.4 1.94,-44.7 2.08,-66.9 0.84,-82.5 8.05,-189.1 18.19,-307.6"
         style="fill:#ed7d2b;fill-opacity:1;fill-rule:nonzero;stroke:none"
         id="path308" /><path
         d="m 7793.15,7088.5 0.61,2.3 c 12.72,48.9 -11.06,99.9 -56.59,121.9 -179.55,86.4 -644.59,310.7 -696.49,338.5 -54.77,29.4 -599.17,552.8 -762.02,710 -28.22,27.2 -69.12,36.5 -106.39,24.4 l -451.05,-147.5 c -83.44,-27.3 -99.43,-138.3 -27.03,-188 331.76,-227.4 1025.8,-700.5 1150.56,-764.3 219.96,-112.4 665.06,-171.2 829.34,-189.8 46.42,-5.2 91,20.5 109.18,63.5 3.77,9 7.17,18.6 9.88,29"
         style="fill:#f99746;fill-opacity:1;fill-rule:nonzero;stroke:none"
         id="path310" /><path
         d="m 6905.67,2477.6 c 0,-11 0.65,-22 2.03,-32.6 4.13,-34.3 14.73,-66.5 30.47,-95.5 12.33,-22.6 27.86,-43.2 45.92,-61.3 48.53,-48.4 115.42,-78.4 189.41,-78.4 h 3766.9 c 147.9,0 267.9,119.9 267.9,267.8 0,74 -29.9,141 -78.5,189.4 -48.4,48.6 -115.4,78.5 -189.4,78.5 H 7173.5 c -147.91,0 -267.83,-119.9 -267.83,-267.9"
         style="fill:#f78248;fill-opacity:1;fill-rule:nonzero;stroke:none"
         id="path312" /><path
         d="m 7192.99,2794 h 1291.54 c 22.61,0 41.11,18.5 41.11,41.1 0,22.6 -18.5,41.1 -41.11,41.1 H 7192.99 c -22.61,0 -41.11,-18.5 -41.11,-41.1 0,-22.6 18.5,-41.1 41.11,-41.1"
         style="fill:#f78248;fill-opacity:1;fill-rule:nonzero;stroke:none"
         id="path314" /><path
         d="m 7264.33,2745.5 h 139.99 v 48.5 h -139.99 v -48.5"
         style="fill:#ea642f;fill-opacity:1;fill-rule:nonzero;stroke:none"
         id="path316" /><path
         d="m 6938.17,2349.5 c 12.33,-22.6 27.86,-43.2 45.92,-61.3 48.53,-48.4 115.42,-78.4 189.41,-78.4 h 797.91 v 139.7 H 6938.17"
         style="fill:#ea642f;fill-opacity:1;fill-rule:nonzero;stroke:none"
         id="path318" /><path
         d="m 11706.9,2556.1 v -156.9 c 0,-17.2 -2.3,-33.9 -6.6,-49.7 -21.7,-80.5 -95.3,-139.7 -182.7,-139.7 H 7593.69 c -87.42,0 -160.98,59.2 -182.74,139.7 -4.28,15.8 -6.6,32.5 -6.6,49.7 v 156.9 c 0,104.6 84.73,189.4 189.34,189.4 h 3923.91 c 104.6,0 189.3,-84.8 189.3,-189.4"
         style="fill:#f99746;fill-opacity:1;fill-rule:nonzero;stroke:none"
         id="path320" /><path
         d="m 11700.3,2349.5 c -21.7,-80.5 -95.3,-139.7 -182.7,-139.7 H 7593.69 c -87.42,0 -160.98,59.2 -182.74,139.7 h 4289.35"
         style="fill:#ef873a;fill-opacity:1;fill-rule:nonzero;stroke:none"
         id="path322" /><path
         d="m 11317.2,2476.7 c 0,-83.2 30.3,-157.6 77.9,-206.8 1.1,-1.1 2.1,-2.2 3.2,-3.3 36.9,-36.7 83.6,-58.7 134.4,-58.7 79.5,0 276.4,119.9 398.4,199.4 60.8,39.7 103,69.4 103,69.4 0,0 -42.2,29.7 -103,69.3 -122,79.7 -318.9,199.5 -398.4,199.5 -23,0 -45.1,-4.5 -65.9,-12.7 -35,-14.1 -66.2,-39.1 -90.8,-71.7 -27.2,-35.8 -46.5,-81 -54.6,-131.1 l -0.2,-1.7 c -2.6,-16.6 -4,-33.9 -4,-51.6"
         style="fill:#aec3ff;fill-opacity:1;fill-rule:nonzero;stroke:none"
         id="path324" /><path
         d="m 11376,2661.1 602.5,-164.5 -511.7,236.2 c -35,-14.1 -66.2,-39.1 -90.8,-71.7"
         style="fill:#ebf3fa;fill-opacity:1;fill-rule:nonzero;stroke:none"
         id="path326" /><path
         d="m 11891.8,2476.7 c 0,-32 16.4,-59.3 39.3,-69.4 60.8,39.7 103,69.4 103,69.4 0,0 -42.2,29.7 -103,69.3 -22.9,-10 -39.3,-37.3 -39.3,-69.3"
         style="fill:#f99746;fill-opacity:1;fill-rule:nonzero;stroke:none"
         id="path328" /><path
         d="M 27645.8,2143.4 H 2519.96 c -15.97,0 -29.04,13.1 -29.04,29 v 11.1 c 0,16 13.07,29 29.04,29 H 27645.8 c 16,0 29,-13 29,-29 v -11.1 c 0,-15.9 -13,-29 -29,-29"
         style="fill:#2e3552;fill-opacity:1;fill-rule:nonzero;stroke:none"
         id="path330" /></g></g></svg>
